<?xml version="1.0" encoding="UTF-8"?>
<svg width="240px" height="51px" viewBox="0 0 240 51" version="1.1" xmlns="http://www.w3.org/2000/svg" xmlns:xlink="http://www.w3.org/1999/xlink">
    <title>ci-logo-light</title>
    <g id="ci-logo-light" stroke="none" stroke-width="1" fill="none" fill-rule="evenodd">
        <g id="Group" transform="translate(55.0113, 13.9229)">
            <path d="M6.79471789,16.8307323 C7.27491236,16.8307323 7.7390934,16.7386964 8.18727491,16.5546218 C8.63545642,16.3705473 9.1156437,16.1024427 9.62785114,15.7503001 L11.3085234,18.1512605 C10.7002771,18.6634679 9.9960024,19.0716271 9.19567827,19.3757503 C8.39535414,19.6798735 7.52301393,19.8319328 6.57863145,19.8319328 C5.21808043,19.8319328 4.04562317,19.5518235 3.06122449,18.9915966 C2.07682581,18.4313697 1.32053085,17.6470639 0.792316927,16.6386555 C0.264103001,15.6302471 0,14.4617914 0,13.1332533 C0,11.8047152 0.272106122,10.6202533 0.816326531,9.57983193 C1.36054694,8.53941056 2.13284814,7.7230922 3.1332533,7.13085234 C4.13365846,6.53861248 5.30611573,6.242497 6.65066026,6.242497 C7.59504274,6.242497 8.44337359,6.3745485 9.19567827,6.63865546 C9.94798295,6.90276242 10.6522576,7.30692005 11.3085234,7.85114046 L9.67587035,10.1320528 C8.74749436,9.49179352 7.79512293,9.17166867 6.81872749,9.17166867 C4.91395606,9.17166867 3.96158463,10.4921837 3.96158463,13.1332533 C3.96158463,14.4617914 4.20968139,15.4101612 4.70588235,15.9783914 C5.20208331,16.5466215 5.89835486,16.8307323 6.79471789,16.8307323 Z M19.5518207,6.242497 C21.4886051,6.242497 23.0051966,6.85473577 24.1016406,8.07923169 C25.1980847,9.30372761 25.7462985,10.948369 25.7462985,13.0132053 C25.7462985,15.1580739 25.2020863,16.8307263 24.1136454,18.0312125 C23.0252046,19.2316987 21.5046116,19.8319328 19.5518207,19.8319328 C17.5990298,19.8319328 16.0784368,19.2357002 14.989996,18.0432173 C13.9015552,16.8507343 13.3573429,15.1820836 13.3573429,13.0372149 C13.3573429,11.6766639 13.6014381,10.4882004 14.0896358,9.47178872 C14.5778336,8.45537707 15.2901113,7.66306807 16.2264906,7.09483794 C17.1628698,6.5266078 18.2713021,6.242497 19.5518207,6.242497 Z M19.5518207,9.05162065 C18.7675031,9.05162065 18.1912783,9.36774394 17.8231292,10 C17.4549801,10.6322561 17.2709083,11.6446509 17.2709083,13.0372149 C17.2709083,14.4457854 17.4549801,15.4661833 17.8231292,16.0984394 C18.1912783,16.7306954 18.7675031,17.0468187 19.5518207,17.0468187 C20.3361384,17.0468187 20.9123631,16.7266939 21.2805122,16.0864346 C21.6486613,15.4461753 21.8327331,14.4217758 21.8327331,13.0132053 C21.8327331,11.6366478 21.6486613,10.6322561 21.2805122,10 C20.9123631,9.36774394 20.3361384,9.05162065 19.5518207,9.05162065 Z M28.0352141,6.67466987 L31.3485394,6.67466987 L31.612645,8.1392557 C32.1888784,7.4989964 32.7931141,7.02281068 33.4253701,6.71068427 C34.0576262,6.39855786 34.7739055,6.242497 35.5742297,6.242497 C36.678677,6.242497 37.5390125,6.57862809 38.1552621,7.25090036 C38.7715117,7.92317263 39.0796318,8.85953782 39.0796318,10.060024 L39.0796318,19.4237695 L35.2861144,19.4237695 L35.2861144,11.1644658 C35.2861144,10.3641417 35.1980801,9.81192629 35.0220088,9.50780312 C34.8459375,9.20367995 34.5258126,9.05162065 34.0616246,9.05162065 C33.677469,9.05162065 33.3053239,9.17566903 32.945178,9.42376951 C32.5850322,9.67186999 32.212887,10.036012 31.8287315,10.5162065 L31.8287315,19.4237695 L28.0352141,19.4237695 L28.0352141,6.67466987 Z M53.5174069,18.6794718 C52.3169207,19.447783 50.9243776,19.8319328 49.3397358,19.8319328 C47.7070746,19.8319328 46.4785955,19.4157705 45.6542617,18.5834334 C44.8299278,17.7510963 44.4177671,16.5826406 44.4177671,15.0780312 L44.4177671,9.29171669 L41.752701,9.29171669 L41.752701,6.67466987 L44.4177671,6.67466987 L44.4177671,3.91356543 L48.2112845,3.45738295 L48.2112845,6.67466987 L52.3169267,6.67466987 L51.9327731,9.29171669 L48.2112845,9.29171669 L48.2112845,15.0780312 C48.2112845,15.702284 48.3553406,16.1504588 48.6434573,16.422569 C48.931574,16.6946792 49.3957551,16.8307323 50.0360144,16.8307323 C50.8363385,16.8307323 51.5806288,16.6386574 52.2689075,16.2545018 L53.5174069,18.6794718 Z M59.3357342,14.1656663 C59.5758315,16.1024507 60.600231,17.0708283 62.4089635,17.0708283 C63.4974043,17.0708283 64.5858288,16.718691 65.6742696,16.0144058 L67.1868747,18.0792317 C66.5626219,18.6234521 65.8183316,19.0516191 64.9539815,19.3637455 C64.0896315,19.6758719 63.13726,19.8319328 62.0968387,19.8319328 C60.6722617,19.8319328 59.4637904,19.547822 58.4713885,18.9795918 C57.4789866,18.4113617 56.7306947,17.6190527 56.2264905,16.6026411 C55.7222863,15.5862294 55.470188,14.405769 55.470188,13.0612245 C55.470188,11.7807059 55.7142832,10.6242549 56.2024809,9.59183673 C56.6906786,8.55941861 57.4029564,7.74310024 58.3393357,7.14285714 C59.2757149,6.54261405 60.3921503,6.242497 61.6886754,6.242497 C62.9051681,6.242497 63.9615801,6.50259844 64.8579431,7.02280912 C65.7543061,7.54301981 66.4465761,8.29531321 66.9347738,9.27971188 C67.4229716,10.2641106 67.6670668,11.4365678 67.6670668,12.7971188 C67.6670668,13.3253328 67.6430574,13.7815107 67.595038,14.1656663 L59.3357342,14.1656663 Z M61.6886754,8.78751501 C61.0003967,8.78751501 60.4481813,9.03961333 60.0320127,9.54381753 C59.6158442,10.0480217 59.3677474,10.8203229 59.287715,11.8607443 L63.9695878,11.8607443 C63.9375748,9.81191453 63.1772783,8.78751501 61.6886754,8.78751501 Z M70.0520207,6.67466987 L73.3653461,6.67466987 L73.6294517,8.1392557 C74.2056851,7.4989964 74.8099207,7.02281068 75.4421768,6.71068427 C76.0744329,6.39855786 76.7907122,6.242497 77.5910363,6.242497 C78.6954836,6.242497 79.5558192,6.57862809 80.1720687,7.25090036 C80.7883183,7.92317263 81.0964385,8.85953782 81.0964385,10.060024 L81.0964385,19.4237695 L77.3029211,19.4237695 L77.3029211,11.1644658 C77.3029211,10.3641417 77.2148868,9.81192629 77.0388154,9.50780312 C76.8627441,9.20367995 76.5426193,9.05162065 76.0784313,9.05162065 C75.6942757,9.05162065 75.3221306,9.17566903 74.9619847,9.42376951 C74.6018389,9.67186999 74.2296937,10.036012 73.8455381,10.5162065 L73.8455381,19.4237695 L70.0520207,19.4237695 L70.0520207,6.67466987 Z M95.5342136,18.6794718 C94.3337274,19.447783 92.9411843,19.8319328 91.3565425,19.8319328 C89.7238813,19.8319328 88.4954022,19.4157705 87.6710683,18.5834334 C86.8467345,17.7510963 86.4345737,16.5826406 86.4345737,15.0780312 L86.4345737,9.29171669 L83.7695077,9.29171669 L83.7695077,6.67466987 L86.4345737,6.67466987 L86.4345737,3.91356543 L90.2280911,3.45738295 L90.2280911,6.67466987 L94.3337334,6.67466987 L93.9495797,9.29171669 L90.2280911,9.29171669 L90.2280911,15.0780312 C90.2280911,15.702284 90.3721473,16.1504588 90.660264,16.422569 C90.9483807,16.6946792 91.4125617,16.8307323 92.052821,16.8307323 C92.8531452,16.8307323 93.5974354,16.6386574 94.2857142,16.2545018 L95.5342136,18.6794718 Z" id="content" fill="#323639"></path>
            <path d="M103.561424,0 C104.21769,0 104.753899,0.204079592 105.170068,0.612244898 C105.586236,1.0204102 105.794318,1.5286084 105.794318,2.13685474 C105.794318,2.76110756 105.586236,3.27330732 105.170068,3.67346939 C104.753899,4.07363145 104.21769,4.27370948 103.561424,4.27370948 C102.905159,4.27370948 102.364948,4.06962989 101.940776,3.66146459 C101.516604,3.25329928 101.304522,2.74510108 101.304522,2.13685474 C101.304522,1.5286084 101.516604,1.0204102 101.940776,0.612244898 C102.364948,0.204079592 102.905159,0 103.561424,0 Z M105.842337,16.8307323 L109.107643,16.8307323 L109.107643,19.4237695 L98.4473788,19.4237695 L98.4473788,16.8307323 L102.048819,16.8307323 L102.048819,9.26770708 L98.5674269,9.26770708 L98.5674269,6.67466987 L105.842337,6.67466987 L105.842337,16.8307323 Z M124.265706,7.41896759 C123.433369,7.75510372 122.208892,7.92316927 120.592237,7.92316927 C121.424574,8.29131837 122.044816,8.73149004 122.452981,9.24369748 C122.861146,9.75590492 123.065226,10.4121609 123.065226,11.212485 C123.065226,12.0288156 122.841139,12.7611012 122.392957,13.4093637 C121.944776,14.0576263 121.312529,14.5658245 120.496198,14.9339736 C119.679868,15.3021227 118.735499,15.4861945 117.663065,15.4861945 C117.134851,15.4861945 116.638658,15.4381758 116.17447,15.3421369 C116.046418,15.4061628 115.946379,15.5062018 115.87435,15.6422569 C115.80232,15.778312 115.766306,15.9183666 115.766306,16.062425 C115.766306,16.3025222 115.858342,16.4905956 116.042417,16.6266507 C116.226491,16.7627058 116.598637,16.8307323 117.158863,16.8307323 L119.271709,16.8307323 C120.232098,16.8307323 121.080428,16.9907947 121.816727,17.3109244 C122.553025,17.631054 123.121246,18.0712257 123.521408,18.6314526 C123.921571,19.1916795 124.121649,19.8239261 124.121649,20.5282113 C124.121649,21.8567493 123.541422,22.8931535 122.380952,23.637455 C121.220482,24.3817564 119.527822,24.7539016 117.302921,24.7539016 C115.718279,24.7539016 114.473794,24.5898376 113.569428,24.2617047 C112.665061,23.9335718 112.032815,23.4733923 111.672669,22.8811525 C111.312523,22.2889126 111.132453,21.5446223 111.132453,20.6482593 L114.493797,20.6482593 C114.493797,21.0484214 114.569827,21.3605431 114.721889,21.5846339 C114.87395,21.8087246 115.158061,21.9767902 115.57423,22.0888355 C115.990398,22.2008809 116.598635,22.2569028 117.398959,22.2569028 C118.519413,22.2569028 119.291714,22.1288528 119.715886,21.8727491 C120.140058,21.6166454 120.352141,21.2565049 120.352141,20.7923169 C120.352141,20.4081613 120.19608,20.1000412 119.883953,19.8679472 C119.571827,19.6358532 119.111648,19.5198079 118.503401,19.5198079 L116.486595,19.5198079 C115.174063,19.5198079 114.189679,19.2837158 113.533413,18.8115246 C112.877147,18.3393334 112.549019,17.7350977 112.549019,16.9987995 C112.549019,16.518605 112.673068,16.0664287 112.921168,15.6422569 C113.169269,15.2180851 113.517405,14.8619462 113.965586,14.5738295 C113.165262,14.1416545 112.589037,13.6334563 112.236895,13.0492197 C111.884752,12.4649831 111.708683,11.7567068 111.708683,10.9243697 C111.708683,9.97998727 111.948777,9.15566579 112.428971,8.45138055 C112.909166,7.74709532 113.581428,7.20688463 114.445778,6.83073229 C115.310128,6.45457995 116.294512,6.2665066 117.398959,6.2665066 C118.679478,6.29851957 119.767903,6.17447119 120.664266,5.89435774 C121.560629,5.6142443 122.472984,5.19408043 123.40136,4.63385354 L124.265706,7.41896759 Z M117.494998,8.7394958 C116.886752,8.7394958 116.410566,8.93157071 116.066426,9.31572629 C115.722287,9.69988187 115.55022,10.2200848 115.55022,10.8763505 C115.55022,11.5646293 115.726289,12.1008384 116.078431,12.484994 C116.430574,12.8691496 116.902758,13.0612245 117.494998,13.0612245 C118.119251,13.0612245 118.599438,12.8731511 118.935574,12.4969988 C119.27171,12.1208465 119.439776,11.5646295 119.439776,10.8283313 C119.439776,9.43576735 118.791523,8.7394958 117.494998,8.7394958 Z M126.07443,6.67466987 L129.387755,6.67466987 L129.651861,8.1392557 C130.228094,7.4989964 130.83233,7.02281068 131.464586,6.71068427 C132.096842,6.39855786 132.813121,6.242497 133.613445,6.242497 C134.717893,6.242497 135.578228,6.57862809 136.194478,7.25090036 C136.810727,7.92317263 137.118847,8.85953782 137.118847,10.060024 L137.118847,19.4237695 L133.32533,19.4237695 L133.32533,11.1644658 C133.32533,10.3641417 133.237296,9.81192629 133.061224,9.50780312 C132.885153,9.20367995 132.565028,9.05162065 132.10084,9.05162065 C131.716685,9.05162065 131.344539,9.17566903 130.984394,9.42376951 C130.624248,9.67186999 130.252103,10.036012 129.867947,10.5162065 L129.867947,19.4237695 L126.07443,19.4237695 L126.07443,6.67466987 Z M145.578231,0 C146.234497,0 146.770706,0.204079592 147.186875,0.612244898 C147.603043,1.0204102 147.811124,1.5286084 147.811124,2.13685474 C147.811124,2.76110756 147.603043,3.27330732 147.186875,3.67346939 C146.770706,4.07363145 146.234497,4.27370948 145.578231,4.27370948 C144.921965,4.27370948 144.381755,4.06962989 143.957583,3.66146459 C143.533411,3.25329928 143.321328,2.74510108 143.321328,2.13685474 C143.321328,1.5286084 143.533411,1.0204102 143.957583,0.612244898 C144.381755,0.204079592 144.921965,0 145.578231,0 Z M147.859143,16.8307323 L151.12445,16.8307323 L151.12445,19.4237695 L140.464186,19.4237695 L140.464186,16.8307323 L144.065626,16.8307323 L144.065626,9.26770708 L140.584234,9.26770708 L140.584234,6.67466987 L147.859143,6.67466987 L147.859143,16.8307323 Z M165.562225,18.6794718 C164.361739,19.447783 162.969195,19.8319328 161.384554,19.8319328 C159.751892,19.8319328 158.523413,19.4157705 157.699079,18.5834334 C156.874746,17.7510963 156.462585,16.5826406 156.462585,15.0780312 L156.462585,9.29171669 L153.797519,9.29171669 L153.797519,6.67466987 L156.462585,6.67466987 L156.462585,3.91356543 L160.256102,3.45738295 L160.256102,6.67466987 L164.361745,6.67466987 L163.977591,9.29171669 L160.256102,9.29171669 L160.256102,15.0780312 C160.256102,15.702284 160.400158,16.1504588 160.688275,16.422569 C160.976392,16.6946792 161.440573,16.8307323 162.080832,16.8307323 C162.881156,16.8307323 163.625447,16.6386574 164.313725,16.2545018 L165.562225,18.6794718 Z M171.380552,14.1656663 C171.620649,16.1024507 172.645049,17.0708283 174.453781,17.0708283 C175.542222,17.0708283 176.630647,16.718691 177.719087,16.0144058 L179.231692,18.0792317 C178.60744,18.6234521 177.863149,19.0516191 176.998799,19.3637455 C176.134449,19.6758719 175.182078,19.8319328 174.141656,19.8319328 C172.71708,19.8319328 171.508608,19.547822 170.516206,18.9795918 C169.523804,18.4113617 168.775513,17.6190527 168.271308,16.6026411 C167.767104,15.5862294 167.515006,14.405769 167.515006,13.0612245 C167.515006,11.7807059 167.759101,10.6242549 168.247299,9.59183673 C168.735496,8.55941861 169.447774,7.74310024 170.384153,7.14285714 C171.320533,6.54261405 172.436968,6.242497 173.733493,6.242497 C174.949986,6.242497 176.006398,6.50259844 176.902761,7.02280912 C177.799124,7.54301981 178.491394,8.29531321 178.979592,9.27971188 C179.467789,10.2641106 179.711885,11.4365678 179.711885,12.7971188 C179.711885,13.3253328 179.687875,13.7815107 179.639856,14.1656663 L171.380552,14.1656663 Z M173.733493,8.78751501 C173.045214,8.78751501 172.492999,9.03961333 172.076831,9.54381753 C171.660662,10.0480217 171.412565,10.8203229 171.332533,11.8607443 L176.014406,11.8607443 C175.982393,9.81191453 175.222096,8.78751501 173.733493,8.78751501 Z M181.37478,0.389915302 C181.927003,0.389915302 182.435201,0.527969144 182.899389,0.804080968 C183.363577,1.08019279 183.731721,1.45233793 184.003831,1.92052755 C184.275941,2.38871716 184.411994,2.89891614 184.411994,3.45113979 C184.411994,4.00336344 184.275941,4.51156164 184.003831,4.97574964 C183.731721,5.43993763 183.363577,5.80808121 182.899389,6.08019141 C182.435201,6.35230162 181.927003,6.48835468 181.37478,6.48835468 C180.822556,6.48835468 180.312357,6.35230162 179.844167,6.08019141 C179.375978,5.80808121 179.005833,5.43993763 178.733723,4.97574964 C178.461613,4.51156164 178.32556,4.00336344 178.32556,3.45113979 C178.32556,2.89891614 178.461613,2.38871716 178.733723,1.92052755 C179.005833,1.45233793 179.375978,1.08019279 179.844167,0.804080968 C180.312357,0.527969144 180.822556,0.389915302 181.37478,0.389915302 Z M181.37478,0.954140992 C180.926598,0.954140992 180.518439,1.06618469 180.15029,1.29027545 C179.782141,1.5143662 179.492027,1.81848481 179.279942,2.20264039 C179.067856,2.58679597 178.961814,3.00295828 178.961814,3.45113979 C178.961814,3.90732455 179.067856,4.32348685 179.279942,4.69963919 C179.492027,5.07579153 179.782141,5.3739078 180.15029,5.59399693 C180.518439,5.81408607 180.926598,5.92412899 181.37478,5.92412899 C181.822961,5.92412899 182.23112,5.81408607 182.599269,5.59399693 C182.967418,5.3739078 183.255531,5.07579153 183.463615,4.69963919 C183.671699,4.32348685 183.77574,3.90732455 183.77574,3.45113979 C183.77574,2.99495504 183.671699,2.57679195 183.463615,2.19663799 C183.255531,1.81648403 182.967418,1.5143662 182.599269,1.29027545 C182.23112,1.06618469 181.822961,0.954140992 181.37478,0.954140992 Z M181.206712,1.72244832 C182.183108,1.72244832 182.671298,2.06258097 182.671298,2.74285648 C182.671298,2.98295372 182.59927,3.18303175 182.455212,3.34309657 C182.311153,3.5031614 182.115077,3.61920666 181.866976,3.69123583 L182.899389,5.10780246 L182.107072,5.10780246 L181.206712,3.79927905 L180.858573,3.79927905 L180.858573,5.10780246 L180.186304,5.10780246 L180.186304,1.72244832 L181.206712,1.72244832 Z M180.858573,2.2506596 L180.858573,3.28307257 L181.242727,3.28307257 C181.730924,3.28307257 181.97502,3.10300234 181.97502,2.74285648 C181.97502,2.41472359 181.722921,2.2506596 181.218717,2.2506596 L180.858573,2.2506596 Z" id="ignite" fill="#F66F5E"></path>
        </g>
        <path d="M25.210084,0 C39.133229,0 50.4201681,11.2869391 50.4201681,25.210084 C50.4201681,39.133229 39.133229,50.4201681 25.210084,50.4201681 C11.2869391,50.4201681 0,39.133229 0,25.210084 C0,11.2869391 11.2869391,0 25.210084,0 Z M23.0238868,16.0826209 C21.5458317,16.3594408 20.0962156,16.9240754 18.756798,17.7939034 C13.26864,21.3579548 11.7088435,28.6962205 15.272895,34.1843785 C18.8369464,39.6725365 26.1752121,41.232333 31.6633701,37.6682815 C33.0027877,36.7984536 34.108219,35.703821 34.9622857,34.4661432 L31.7694695,29.5496081 C31.3414793,31.0955968 30.3684307,32.4973092 28.9172909,33.4396904 C25.7645193,35.4871242 21.5489199,34.5910709 19.5014861,31.4382993 C17.4540522,28.2855277 18.3501055,24.0699283 21.5028772,22.0224945 C22.954017,21.0801132 24.6303195,20.761317 26.2167297,20.9991387 Z M29.5536246,12.6622295 C29.0271085,14.4000895 27.4861731,15.6970597 25.6198569,15.8641014 L25.635869,15.8890043 C25.6247962,15.8885965 25.6137224,15.8882043 25.6026475,15.8878275 L30.5698728,23.534693 C30.6920837,23.6911529 30.8085212,23.8542527 30.918682,24.0238856 C31.0286574,24.1932328 31.1301403,24.3656465 31.2232372,24.5406259 L36.1891149,32.1895577 C37.592849,28.7241528 37.3381307,24.6514312 35.1472731,21.2778064 Z M25.5277872,4.50015691 C25.5277872,4.50015691 26.0773928,6.03415523 25.4720301,6.67859267 C25.4720301,6.67859267 25.3445853,5.96299036 24.9423377,5.7060061 C24.9423377,5.7060061 25.0857131,5.83252143 25.0936784,6.01043361 C25.1016437,6.27137146 25.0219907,6.48091247 24.7033788,7.0106954 C24.3290098,7.63141121 23.9904846,8.26794144 23.5563758,8.80167797 C22.919002,9.57940302 22.4282808,10.3736092 22.4370916,11.3102234 L22.4369748,11.3445378 C22.4369748,11.8821452 22.5899564,12.3840217 22.8547619,12.8090098 C23.1319647,13.296682 23.5401142,13.6953308 24.0741202,13.8978734 L24.2112069,13.9323015 C24.5211242,14.0520095 24.8579389,14.1176471 25.210084,14.1176471 C25.5164679,14.1176471 25.8112467,14.0679603 26.0868024,13.9762051 C26.0787334,13.9941588 26.0685355,14.0166463 26.0574795,14.0402032 C26.0409088,14.071732 26.0918476,14.0286389 26.1751019,13.9463557 C27.2311826,13.5527939 27.9831933,12.5364866 27.9831933,11.3445378 L27.98,11.44 L28.0025622,11.3239207 C28.1150481,10.5368422 27.7923828,9.80133151 27.391667,9.1298271 C27.4865868,8.2962756 27.5313086,7.4228586 27.2497436,6.7927873 L27.168,6.634 L27.177498,6.65412182 C27.2238268,6.7590364 27.3637884,7.15358994 27.0531418,7.53652472 C26.8141829,5.80879981 25.5277872,4.50015691 25.5277872,4.50015691 Z" id="Combined-Shape" fill="#323639"></path>
    </g>
</svg>