<?xml version="1.0" encoding="UTF-8"?>
<svg width="64px" height="64px" viewBox="0 0 64 64" version="1.1" xmlns="http://www.w3.org/2000/svg" xmlns:xlink="http://www.w3.org/1999/xlink">
    <title>ci-icon-color</title>
    <g id="ci-icon-color" stroke="none" fill="none" fill-rule="evenodd">
        <path d="M32,0 C49.673112,0 64,14.326888 64,32 C64,49.673112 49.673112,64 32,64 C14.326888,64 0,49.673112 0,32 C0,14.326888 14.326888,0 32,0 Z M29.2251628,20.4141739 C27.3489573,20.7655387 25.5088494,21.4822586 23.8086289,22.5863947 C16.842327,27.110364 14.8624253,36.4250692 19.3863947,43.3913711 C23.910364,50.357673 33.2250692,52.3375747 40.1913711,47.8136053 C41.8915916,46.7094692 43.294787,45.3199633 44.3788963,43.7488772 L40.3261482,37.5079354 C39.7829384,39.4704556 38.5477763,41.2498432 36.7056813,42.4461137 C32.7037632,45.0449897 27.3527623,43.9075994 24.7538863,39.9056813 C22.1550103,35.9037632 23.2924006,30.5527623 27.2943187,27.9538863 C29.1364138,26.7576158 31.2643509,26.3529812 33.2781457,26.6549632 Z M37.5131475,16.0734257 C36.8446532,18.278696 34.8892306,19.9244795 32.5208906,20.1367653 L32.5414044,20.1684775 C32.5272224,20.1679543 32.513039,20.1674512 32.4988542,20.1669681 L38.7969442,29.8651686 C38.9544118,30.0662684 39.1043568,30.2760323 39.2461137,30.4943187 C39.3878706,30.7126052 39.5185113,30.9349054 39.6381773,31.1605539 L45.9362603,40.858759 C47.7178309,36.4601175 47.3944243,31.2907147 44.6136053,27.0086289 Z M32.4032712,5.71219917 L32.4155579,5.74800948 C32.5055097,6.01651745 33.0394313,7.72479484 32.3324968,8.47736029 C32.3324968,8.47736029 32.1707269,7.56902243 31.6601407,7.24282375 C31.6601407,7.24282375 31.8421318,7.40341387 31.8522424,7.62924372 C31.8623531,7.96046084 31.7612469,8.22643823 31.3568221,8.89890936 C30.881623,9.68680463 30.4519217,10.4947737 29.900893,11.1722632 C29.0940201,12.1568116 28.4723023,13.1621681 28.480072,14.346895 L28.48,14.4 C28.48,15.0778901 28.6716248,15.7110238 29.0036611,16.2481879 C29.3562466,16.8721191 29.8763707,17.3824679 30.5580832,17.641034 L30.7343926,17.6856223 C31.1271469,17.8370085 31.5538816,17.92 32,17.92 C32.3884424,17.92 32.762189,17.8570804 33.1116043,17.7408768 C33.1018342,17.7649522 33.0892434,17.7926862 33.0756273,17.8216979 C33.0543418,17.8621976 33.1208124,17.8056957 33.2287424,17.6988016 C34.56743,17.2003326 35.52,15.9114086 35.52,14.4 L35.516,14.527 L35.5396211,14.4071564 C35.696457,13.3955219 35.2834494,12.4506275 34.769156,11.5887939 C34.8912056,10.5169982 34.9478715,9.39327703 34.5748729,8.59130854 L34.484,8.418 L34.4937897,8.43845757 C34.5484601,8.55859631 34.7419837,9.07016366 34.3394547,9.56636204 C34.0361361,7.37330322 32.4032712,5.71219917 32.4032712,5.71219917 Z" id="Combined-Shape" fill="#F66F5E"></path>
    </g>
</svg>