<svg xmlns="http://www.w3.org/2000/svg" viewBox="0 0 1800 500"><g fill="none" fill-rule="evenodd"><g fill-rule="nonzero"><path fill="#E5E5E5" d="M864.27 99.27c-.91 0-1.666-.707-1.73-1.615-2.353-31.99-28.95-56.768-61.026-56.855-1.851 0-3.795.094-5.78.28a1.735 1.735 0 0 1-1.668-.865c-14.522-25.42-42.842-39.688-71.914-36.23-29.071 3.457-53.255 23.969-61.41 52.086a1.728 1.728 0 0 1-1.707 1.253l-.462-.014c-.24-.008-.48-.017-.722-.017-24.167.076-45.02 16.972-50.107 40.598a1.736 1.736 0 0 1-1.698 1.378h-116.31a1.736 1.736 0 0 1 0-3.472h114.92c5.953-24.545 27.879-41.866 53.135-41.976C666.718 24.945 691.834 4.05 721.853.523c30.018-3.525 59.292 10.983 74.667 37.005a64.5 64.5 0 0 1 4.994-.2c33.897.092 62.003 26.277 64.49 60.083a1.736 1.736 0 0 1-1.733 1.858ZM843.614 121.53h-284.72a1.736 1.736 0 1 1 0-3.473h284.72a1.736 1.736 0 1 1 0 3.472ZM628.337 146.703h-95.485a1.736 1.736 0 1 1 0-3.473h95.485a1.736 1.736 0 0 1 0 3.473ZM157.234 79.397a.863.863 0 0 1-.86-.804c-1.172-15.918-14.407-28.248-30.368-28.29-.92 0-1.888.046-2.876.139a.864.864 0 0 1-.83-.431 36.279 36.279 0 0 0-66.343 7.89.86.86 0 0 1-.85.624l-.229-.007c-.12-.004-.239-.009-.36-.009-12.025.038-22.402 8.446-24.933 20.202a.864.864 0 0 1-.845.686h-57.876a.864.864 0 1 1 0-1.728h57.185c2.962-12.214 13.872-20.832 26.44-20.887a38.006 38.006 0 0 1 69.032-8.108c.85-.066 1.683-.1 2.485-.1 16.868.046 30.853 13.076 32.09 29.898a.864.864 0 0 1-.862.925ZM146.955 90.474H5.277a.864.864 0 1 1 0-1.728h141.678a.864.864 0 1 1 0 1.728ZM39.833 103H-7.682a.864.864 0 0 1 0-1.728h47.515a.864.864 0 0 1 0 1.728ZM1269.53 53.48a.568.568 0 0 1-.566-.528c-.77-10.467-9.472-18.574-19.967-18.602-.606 0-1.242.03-1.891.091a.568.568 0 0 1-.546-.283 23.854 23.854 0 0 0-43.623 5.188.565.565 0 0 1-.558.41l-.151-.005c-.079-.002-.157-.005-.237-.005a16.824 16.824 0 0 0-16.394 13.283.568.568 0 0 1-.556.451h-38.055a.568.568 0 0 1 0-1.136h37.6a17.97 17.97 0 0 1 17.386-13.734 24.99 24.99 0 0 1 45.39-5.331 21.104 21.104 0 0 1 1.635-.066c11.09.03 20.287 8.598 21.1 19.66a.568.568 0 0 1-.567.607ZM1262.772 60.763h-93.159a.568.568 0 0 1 0-1.136h93.159a.568.568 0 0 1 0 1.136ZM1192.335 69h-31.242a.568.568 0 0 1 0-1.136h31.242a.568.568 0 0 1 0 1.136ZM1438.412 103.247a.686.686 0 0 1-.684-.638c-.93-12.648-11.446-22.444-24.128-22.478-.731 0-1.5.037-2.284.11a.686.686 0 0 1-.66-.342 28.824 28.824 0 0 0-52.71 6.27.683.683 0 0 1-.676.494l-.182-.005c-.095-.003-.19-.007-.286-.007-9.554.03-17.799 6.71-19.81 16.051a.686.686 0 0 1-.671.545h-45.984a.686.686 0 1 1 0-1.373h45.434a21.714 21.714 0 0 1 21.008-16.595 30.197 30.197 0 0 1 54.847-6.442 25.5 25.5 0 0 1 1.975-.08c13.401.037 24.513 10.39 25.496 23.755a.686.686 0 0 1-.685.735ZM1430.245 112.047H1317.68a.686.686 0 1 1 0-1.372h112.566a.686.686 0 1 1 0 1.372ZM1345.134 122h-37.751a.686.686 0 1 1 0-1.373h37.75a.686.686 0 1 1 0 1.373Z"/><path fill="#CBCBCB" d="M1003.989 500h-467.88a.868.868 0 1 1 0-1.736h467.88a.868.868 0 1 1 0 1.736Z"/></g><g fill="#CBCBCB" fill-rule="nonzero"><path d="M936.424 93.17 926 85.112c8.098-.863 11.425 3.404 12.787 6.782 6.326-2.538 13.213.788 13.213.788L931.144 100a15.308 15.308 0 0 1 5.28-6.83ZM962.424 22.17 952 14.112c8.098-.863 11.425 3.404 12.787 6.782 6.326-2.538 13.213.788 13.213.788L957.144 29a15.308 15.308 0 0 1 5.28-6.83ZM817.424 67.17 807 59.112c8.098-.864 11.425 3.404 12.787 6.782 6.326-2.538 13.213.788 13.213.788L812.144 74a15.308 15.308 0 0 1 5.28-6.83Z"/></g><g fill-rule="nonzero"><path fill="#E6E6E6" d="M619 462s2.938-12.25 23.5-8.167C663.063 457.917 666 462 666 462h-47ZM716 449s-16.8-9-24 0h24Z"/><path fill="#E6E6E6" d="M622.064 440.58c4.907 9.39 15.32 13.42 15.32 13.42s2.459-11.192-2.448-20.58c-4.907-9.39-15.32-13.42-15.32-13.42s-2.459 11.192 2.448 20.58Z"/><path fill="#E6E6E6" d="M625.378 437.732C634.49 443.064 638 453.654 638 453.654s-11.265 1.945-20.378-3.386C608.51 444.936 605 434.346 605 434.346s11.265-1.945 20.378 3.386ZM812 499a560.3 560.3 0 0 0-20.85-2.945l2.57-5.242c-.892-.303-4.756 2.73-4.756 2.73l3.27-15.161c-4.46.606-6.54 16.07-6.54 16.07l-5.053-5.155 2.488 5.836c-20.415-2.188-38.031-2.87-52.84-2.714l2.2-4.486c-.892-.303-4.757 2.729-4.757 2.729l3.27-15.16c-4.458.606-6.54 16.07-6.54 16.07l-5.052-5.155 2.634 6.181a290.885 290.885 0 0 0-30.325 2.491c2.194-6.972 9.856-13.675 9.856-13.675-5.891 1.87-8.956 4.916-10.543 7.74A123.996 123.996 0 0 1 697.414 447s-11.89 27.289-10.106 45.481l.226 3.232C677.19 497.359 672 499 672 499h140ZM493 500a560.3 560.3 0 0 0-20.85-2.945l2.57-5.242c-.892-.303-4.756 2.73-4.756 2.73l3.27-15.161c-4.46.606-6.54 16.07-6.54 16.07l-5.053-5.155 2.488 5.836c-20.415-2.188-38.031-2.87-52.84-2.714l2.2-4.486c-.892-.303-4.757 2.729-4.757 2.729l3.27-15.16c-4.458.606-6.54 16.07-6.54 16.07l-5.052-5.155 2.634 6.181a290.885 290.885 0 0 0-30.325 2.491c2.194-6.972 9.856-13.675 9.856-13.675-5.891 1.87-8.956 4.916-10.543 7.74A123.996 123.996 0 0 1 378.414 448s-11.89 27.289-10.106 45.481l.226 3.232C358.19 498.359 353 500 353 500h140Z"/><path fill="#F2F2F2" d="M758 292.899C758 366.353 714.348 392 660.5 392S563 366.353 563 292.899C563 219.445 660.5 126 660.5 126S758 219.445 758 292.899Z"/><path fill="#E6E6E6" d="m657.311 380.77 1.001-61.476L700 243.24l-41.531 66.41.45-27.642 28.732-55.024-28.613 47.709.811-49.715 30.765-43.806-30.638 35.989.506-91.161-3.18 120.68.261-4.978-31.28-47.747 30.779 57.303-2.915 55.524-.087-1.474L618 255.062l35.951 55.452-.365 6.944-.064.105.029.569L646.157 459h9.879l1.186-72.761 35.862-55.316z"/><path fill="#F2F2F2" stroke="#FFF" stroke-width="4" d="M818 394.273c0 45.01-26.863 60.727-60 60.727s-60-15.716-60-60.727C698 349.26 758 292 758 292s60 57.261 60 102.273Z"/><path fill="#E6E6E6" d="m755.449 449.075.623-37.661L782 364.823l-25.83 40.683.28-16.933 17.869-33.709-17.795 29.227.504-30.456 19.135-26.836-19.056 22.047.315-55.846-1.978 73.93.162-3.05-19.454-29.25 19.143 35.105-1.813 34.014-.054-.903L731 372.065l22.36 33.971-.227 4.253-.04.064.018.35L748.512 497h6.145l.737-44.574 22.305-33.888z"/><path fill="#CECECE" d="M638 499s1.5-5.444 12-3.63c10.5 1.815 12 3.63 12 3.63h-24ZM674 499s-8.4-4.5-12 0h12Z"/></g><g transform="translate(86.894)"><path fill="#2F2E41" fill-rule="nonzero" d="M294.807 24.335c5.682 12.09-6.357 15.515-20.148 21.996-13.79 6.48-24.111 13.562-29.793 1.472-5.681-12.09-10.29-36.088 9.219-45.256 20.181-9.484 35.04 9.698 40.722 21.788Z"/><circle cx="266.67" cy="29.547" r="18.565" fill="#FFB8B8" fill-rule="nonzero"/><path fill="#2F2E41" fill-rule="nonzero" d="M358.647 111.88a112.237 112.237 0 0 0-1.935-2.463 104.143 104.143 0 0 0-2.533-3.031c-9.622-11.104-19.857-18.096-31.127-18.845h-.015l-.166-.015-22.458 21.89-7.634 7.439.166.408 4.12 10.257h72.18a177.508 177.508 0 0 0-10.598-15.64ZM246.482 37.021l6.646-3.122-.926-9.588 4.444 7.934 3.176-1.492-.54-5.593 2.592 4.628 23.603-11.09c-4.617-9.824-16.322-14.046-26.146-9.43l-3.42 1.608c-9.824 4.616-14.045 16.322-9.43 26.145Z"/><path fill="#F2F2F2" fill-rule="nonzero" d="M400.296 374.014H12.647C5.762 374.006.183 368.427.175 361.542v-232.93a9.148 9.148 0 0 1 9.137-9.138h394.161a9.306 9.306 0 0 1 9.295 9.296v232.772c-.007 6.885-5.587 12.464-12.472 12.472Z"/><path fill="#FFF" fill-rule="nonzero" d="M24.741 361.542h363.461c6.68 0 12.094-5.415 12.094-12.094V151.746c0-6.679-5.415-12.094-12.094-12.094H24.742c-6.68 0-12.095 5.415-12.095 12.094v197.702c0 6.68 5.415 12.094 12.094 12.094Z"/><path fill="#F66F5E" fill-rule="nonzero" d="M412.595 127.898H0v-6.35c.01-6.907 5.61-12.504 12.518-12.51h387.56c6.907.006 12.507 5.603 12.517 12.51v6.35Z"/><circle cx="22.749" cy="118.487" r="3.238" fill="#FFF" fill-rule="nonzero"/><circle cx="35.039" cy="118.487" r="3.238" fill="#FFF" fill-rule="nonzero"/><circle cx="47.328" cy="118.487" r="3.238" fill="#FFF" fill-rule="nonzero"/><path fill="#CCC" fill-rule="nonzero" d="M291.813 296.667h-32.504a7.19 7.19 0 0 1-7.18-7.181v-32.503a7.19 7.19 0 0 1 7.18-7.181h32.504a7.19 7.19 0 0 1 7.18 7.18v32.504a7.19 7.19 0 0 1-7.18 7.181Zm-32.504-45.353a5.675 5.675 0 0 0-5.669 5.669v32.503a5.675 5.675 0 0 0 5.67 5.67h32.503a5.675 5.675 0 0 0 5.669-5.67v-32.503a5.675 5.675 0 0 0-5.67-5.67H259.31Z"/><path fill="#CCC" fill-rule="nonzero" d="M285.388 287.596h-19.654a2.27 2.27 0 0 1-2.267-2.267V261.14a2.27 2.27 0 0 1 2.267-2.267h14.24c.518 0 1.019.176 1.422.5l5.412 4.349c.537.43.849 1.08.847 1.768v19.839a2.27 2.27 0 0 1-2.267 2.267Zm-19.654-27.212a.757.757 0 0 0-.755.756v24.189c0 .417.338.755.755.756h19.654a.757.757 0 0 0 .755-.756v-19.84a.752.752 0 0 0-.282-.589l-5.413-4.35a.757.757 0 0 0-.473-.166h-14.24Z"/><path fill="#CCC" fill-rule="nonzero" d="M281.608 269.455h-12.094a.756.756 0 0 1 0-1.512h12.094a.756.756 0 1 1 0 1.512ZM281.608 273.99h-12.094a.756.756 0 0 1 0-1.511h12.094a.756.756 0 1 1 0 1.511ZM281.608 278.526h-12.094a.756.756 0 0 1 0-1.512h12.094a.756.756 0 1 1 0 1.512ZM368.913 296.667H336.41a7.19 7.19 0 0 1-7.18-7.181v-32.503a7.19 7.19 0 0 1 7.18-7.181h32.503a7.19 7.19 0 0 1 7.181 7.18v32.504a7.19 7.19 0 0 1-7.18 7.181Zm-32.503-45.353a5.675 5.675 0 0 0-5.67 5.669v32.503a5.675 5.675 0 0 0 5.67 5.67h32.503a5.675 5.675 0 0 0 5.67-5.67v-32.503a5.675 5.675 0 0 0-5.67-5.67H336.41Z"/><path fill="#CCC" fill-rule="nonzero" d="M363.244 281.55H342.08a2.27 2.27 0 0 1-2.267-2.268v-12.095a2.27 2.27 0 0 1 2.267-2.267h21.165a2.27 2.27 0 0 1 2.268 2.267v12.095a2.27 2.27 0 0 1-2.268 2.267ZM342.08 266.43a.757.757 0 0 0-.756.756v12.095c0 .417.339.755.756.755h21.165a.757.757 0 0 0 .756-.755v-12.095a.757.757 0 0 0-.756-.756H342.08Z"/><path fill="#CCC" fill-rule="nonzero" d="M352.662 275.229a2.27 2.27 0 0 1-1.202-.343l-11.293-7.058a.756.756 0 0 1 .801-1.282l11.294 7.058a.76.76 0 0 0 .8 0l11.293-7.058a.756.756 0 0 1 .802 1.282l-11.293 7.058c-.36.225-.777.343-1.202.343ZM214.712 296.667h-32.503a7.19 7.19 0 0 1-7.181-7.181v-32.503a7.19 7.19 0 0 1 7.18-7.181h32.504a7.19 7.19 0 0 1 7.18 7.18v32.504a7.19 7.19 0 0 1-7.18 7.181Zm-32.503-45.353a5.675 5.675 0 0 0-5.67 5.669v32.503a5.675 5.675 0 0 0 5.67 5.67h32.503a5.675 5.675 0 0 0 5.67-5.67v-32.503a5.675 5.675 0 0 0-5.67-5.67h-32.503Z"/><path fill="#CCC" fill-rule="nonzero" d="M209.043 281.55h-21.165a2.27 2.27 0 0 1-2.268-2.268v-12.095a2.27 2.27 0 0 1 2.268-2.267h21.165a2.27 2.27 0 0 1 2.267 2.267v12.095a2.27 2.27 0 0 1-2.267 2.267Zm-21.165-15.119a.757.757 0 0 0-.756.756v12.095c0 .417.339.755.756.755h21.165a.757.757 0 0 0 .756-.755v-12.095a.757.757 0 0 0-.756-.756h-21.165Z"/><path fill="#CCC" fill-rule="nonzero" d="M205.688 281.55h-15.211a1.511 1.511 0 0 1-1.31-2.268l4.582-7.937a1.512 1.512 0 0 1 2.619 0l2.96 5.126 1.714-2.97a1.512 1.512 0 0 1 2.618 0l3.338 5.78a1.512 1.512 0 0 1-1.31 2.268Zm0-1.513-3.337-5.78-2.369 4.103a.756.756 0 0 1-1.31 0l-3.613-6.26-4.582 7.937h15.211Z"/><circle cx="206.775" cy="269.455" r="1.512" fill="#CCC" fill-rule="nonzero"/><path fill="#FFB8B8" fill-rule="nonzero" d="M494.252 489.929h-9.267l-4.408-35.745 13.677.001z"/><path fill="#2F2E41" fill-rule="nonzero" d="M496.616 498.912h-29.881v-.379a11.63 11.63 0 0 1 11.63-11.63h18.251v12.01Z"/><path fill="#FFB8B8" fill-rule="nonzero" d="M532.047 489.929h-9.267l-4.409-35.745 13.677.001z"/><path fill="#2F2E41" fill-rule="nonzero" d="M534.41 498.912h-29.88v-.379a11.63 11.63 0 0 1 11.63-11.63h18.25v12.01ZM529.269 474.434l-8.583-2.61a3.396 3.396 0 0 1-2.393-2.898l-8.002-75.836a.363.363 0 0 0-.361-.338.355.355 0 0 0-.386.31l-13.403 73.471a3.402 3.402 0 0 1-4.032 2.721l-10.97-2.26a3.414 3.414 0 0 1-2.707-3.561l8.153-120.423 55.284-5.965-8.215 134.342a3.405 3.405 0 0 1-4.385 3.047Z"/><circle cx="529.216" cy="219.576" r="18.565" fill="#FFB8B8" fill-rule="nonzero"/><path fill="#F66F5E" fill-rule="nonzero" d="m486.5 343.718 11.987-75.477a28.616 28.616 0 0 1 36.286-22.978c14.13 4.087 22.838 18.247 20.108 32.701l-12.541 67.404-55.84-1.65Z"/><path fill="#FFB8B8" fill-rule="nonzero" d="M534.342 357.222a7.601 7.601 0 0 0 1.32-11.58l12.394-24-13.958 1.49-9.629 22.562a7.642 7.642 0 0 0 9.873 11.528Z"/><path fill="#F66F5E" fill-rule="nonzero" d="M536.995 341.409a3.406 3.406 0 0 1-1.834-.87l-4.742-4.382a3.413 3.413 0 0 1-.825-3.82l9.477-22.464-1.344-44.386a10.958 10.958 0 1 1 21.714 2.962l2.299 27.902a35.053 35.053 0 0 1-6.756 23.733l-14.78 19.98a3.405 3.405 0 0 1-3.209 1.345Z"/><path fill="#FFB8B8" fill-rule="nonzero" d="M422.304 209.46a7.601 7.601 0 0 0 10.149 5.732l17.269 20.77 4.07-13.433-17.023-17.665a7.642 7.642 0 0 0-14.465 4.597Z"/><path fill="#F66F5E" fill-rule="nonzero" d="M435.831 218.07a3.406 3.406 0 0 1 1.516-1.35l5.884-2.658a3.413 3.413 0 0 1 3.84.73l16.99 17.485 41.398 16.068a10.958 10.958 0 1 1-11.194 18.84l-26.59-8.761a35.053 35.053 0 0 1-19.22-15.475l-12.636-21.4a3.405 3.405 0 0 1 .012-3.479Z"/><path fill="#000" fill-rule="nonzero" d="m544.275 283.951-.756 24.189-13.925 24.196 11.627-26.964z" opacity=".1"/><path fill="#2F2E41" fill-rule="nonzero" d="M527.09 223.065a4.855 4.855 0 0 1-5.315-3.555 7.38 7.38 0 0 0-5.254-5.498c-3.406-.778-7.568.825-10.064-1.755a5.017 5.017 0 0 1-1.19-4.416c.46-2.508 2.253-4.402 4.205-5.917a25.747 25.747 0 0 1 14.26-5.33 51.156 51.156 0 0 1 8.029.4c2.786.176 5.543.68 8.211 1.5a19.333 19.333 0 0 1 12.096 14.12 22.32 22.32 0 0 1-4.579 18.24 23.963 23.963 0 0 1-9.192 7 3.586 3.586 0 0 1-2.726.138c-2.235-.89-1.87-3.658-.85-5.505 1.09-1.977 2.769-3.89 1.891-6.296a4.764 4.764 0 0 0-2.363-2.544c-2.223-1.133-4.708-.865-7.097-.59l-.063.008Z"/><path fill="#FFF" fill-rule="nonzero" d="M416.1 233.549H186.31c-6.886-.008-12.465-5.587-12.473-12.472v-49.133c.008-6.885 5.587-12.464 12.472-12.472H416.1c6.886.008 12.465 5.587 12.473 12.472v49.133c-.008 6.885-5.587 12.464-12.472 12.472Z"/><path fill="#3F3D56" fill-rule="nonzero" d="M416.1 233.927H186.31c-7.094-.008-12.843-5.756-12.85-12.85v-49.133c.007-7.093 5.756-12.842 12.85-12.85H416.1c7.093.008 12.842 5.757 12.85 12.85v49.133c-.008 7.094-5.757 12.842-12.85 12.85Zm-229.79-73.321c-6.26.007-11.332 5.08-11.339 11.338v49.133c.007 6.259 5.08 11.331 11.338 11.338H416.1c6.26-.007 11.332-5.079 11.339-11.338v-49.133c-.007-6.259-5.08-11.331-11.338-11.338H186.31Z"/><path fill="#F2F2F2" fill-rule="nonzero" d="M383.693 222.455H200.917c-7.238-.008-13.104-5.587-13.112-12.472v-25.7c.008-6.885 5.874-12.465 13.112-12.473h182.776c7.238.008 13.104 5.588 13.112 12.473v25.7c-.008 6.885-5.874 12.464-13.112 12.472Z"/><circle cx="237.69" cy="193.687" r="14.915" fill="#FF6584" fill-rule="nonzero"/><path fill="#3F3D56" fill-rule="nonzero" d="m363.328 220.95-21.054-17.658-20.69-17.352a3.024 3.024 0 0 0-3.895.007l-20.623 17.432-5.037 4.259-7.595-6.37-23.083-19.36a3.023 3.023 0 0 0-3.895.008l-23.007 19.448-23.37 19.754a.756.756 0 0 0 .49 1.333l47.913-.092 15.166-.03-.149.126 45.208-.087 43.137-.083a.756.756 0 0 0 .484-1.335Z"/><path fill="#CCC" fill-rule="nonzero" d="M574.714 500h-145.13a.756.756 0 1 1 0-1.512h145.13a.756.756 0 1 1 0 1.512Z"/><path fill="#FFB8B8" fill-rule="nonzero" d="M369.705 99.711a8.482 8.482 0 0 0-5.48-3.855 7.786 7.786 0 0 0-1.254-.159l-57.592-51.49a6.814 6.814 0 0 0-4.255-2.034 5.798 5.798 0 0 0-.96-.03 6.845 6.845 0 0 0-4.505 11.7l22.049 19.223 36.207 31.558c.03.595.118 1.185.264 1.762a8.516 8.516 0 0 0 7.31 6.326 8.384 8.384 0 0 0 4.573-.756 8.622 8.622 0 0 0 2.933-2.245c.083-.098.159-.189.234-.294a8.536 8.536 0 0 0 .476-9.706ZM271.198 149.335l-.537-21.815-.453-18.103-.31-12.669-.613-24.695a6.838 6.838 0 0 0-11.875-3.968c-.21.224-.4.467-.567.725a6.754 6.754 0 0 0-1.179 4.573l1.346 36.034.673 18.103.861 23.093c-.248.339-.473.695-.672 1.065a8.502 8.502 0 0 0-.537 6.682 8.55 8.55 0 0 0 11.761 5.012 8.542 8.542 0 0 0 2.102-14.037Z"/><path fill="#CCC" fill-rule="nonzero" d="m323.052 87.541-5.344-14.475-8.648-23.448a12.098 12.098 0 0 0-7.936-7.445 12.082 12.082 0 0 0-10.008 1.375L261.99 62.022c-5.544 3.51-7.307 10.783-3.983 16.441a208.87 208.87 0 0 0 11.89 18.285c3.394 4.618 9.713 5.11 10.81 12.669h21.474l21.74-19.517-.87-2.359Z"/><path fill="#F66F5E" d="M413.106 165c5.523 0 10 4.477 10 10s-4.477 10-10 10-10-4.477-10-10 4.477-10 10-10Zm-.375 6.927a4.404 4.404 0 0 0-1.623.643c-2.082 1.352-2.652 4.17-1.272 6.295 1.38 2.125 4.186 2.75 6.268 1.399.508-.33.926-.748 1.248-1.221l-1.236-1.903a2.544 2.544 0 0 1-1.075 1.487c-1.196.777-2.808.417-3.6-.804-.793-1.22-.466-2.84.73-3.616a2.544 2.544 0 0 1 1.795-.377Zm2.498-1.267a1.729 1.729 0 0 1-1.482 1.164l-.044.002.024.035a4.2 4.2 0 0 0-.012 0l1.928 2.968a2.724 2.724 0 0 1 .242.372l1.927 2.97a4.609 4.609 0 0 0-.436-4.202Zm-2.017-3.66s.197.64-.02.91c0 0-.045-.3-.19-.407 0 0 .052.053.055.128.003.109-.026.196-.14.417-.134.26-.255.525-.41.748-.274.39-.472.79-.377 1.29.07.366.26.704.562.838.141.038.23.086.328.074a.36.36 0 0 1-.081-.093c.181.15.414.242.667.242.581 0 1.052-.48 1.052-1.073 0-.475-.301-.877-.72-1.02l-.059-.12c.032-.326.048-.666-.032-.924l-.041-.101.004.012a.4.4 0 0 1-.052.347c-.085-.722-.546-1.268-.546-1.268Z"/></g><g transform="translate(1502 173)"><path fill="#E6E6E6" fill-rule="nonzero" d="M293.448 279H4.552A4.56 4.56 0 0 1 0 274.44V148.56A4.56 4.56 0 0 1 4.552 144h288.896a4.56 4.56 0 0 1 4.552 4.56v125.88a4.56 4.56 0 0 1-4.552 4.56ZM4.552 145.824a2.736 2.736 0 0 0-2.731 2.737v125.878a2.736 2.736 0 0 0 2.73 2.737h288.897a2.736 2.736 0 0 0 2.731-2.737V148.561a2.736 2.736 0 0 0-2.73-2.737H4.551Z"/><path fill="#E6E6E6" fill-rule="nonzero" d="M16.75 160c-1.519 0-2.75 1.12-2.75 2.5s1.231 2.5 2.75 2.5h38.5c1.519 0 2.75-1.12 2.75-2.5s-1.231-2.5-2.75-2.5h-38.5ZM278 178.096V229H20v-26.802c1.787-1.152 3.584-2.3 5.397-3.409 7.746-4.76 16.036-9.213 25.072-10.863 4.273-.8 8.651-.855 12.943-.162 4.534.752 8.873 2.32 13.17 3.895 4.237 1.558 8.485 3.165 12.916 4.068 4.318.852 8.751.94 13.1.26 8.296-1.25 16.09-4.599 23.851-7.628 7.81-3.046 15.858-5.925 24.31-6.303 8.345-.379 16.587 1.601 24.505 4.057 16.144 5.005 32.628 12.428 49.722 7.337 17.358-5.162 33.324-20.061 52.56-15.641a.724.724 0 0 1 .454.287Z"/><path fill="#F66F5E" fill-rule="nonzero" d="M277.873 178.986a.776.776 0 0 1-.882.39 28.53 28.53 0 0 0-6.983-.726c-18.9.336-33.43 15.663-51.91 17.955-16.66 2.065-32.342-6.097-48.008-10.362-8.14-2.217-16.531-3.393-24.908-1.886-8.311 1.49-16.112 4.916-23.945 7.956-7.542 2.926-15.38 5.647-23.547 5.783-8.978.151-17.064-3.577-25.392-6.417-4.33-1.48-8.774-2.65-13.363-2.764a40.152 40.152 0 0 0-13.17 2.054c-8.85 2.834-16.822 7.885-24.585 12.904a.686.686 0 0 1-.457.124.842.842 0 0 1-.355-1.528l.355-.228a265.246 265.246 0 0 1 5.38-3.414c7.72-4.769 15.983-9.23 24.988-10.882a37.372 37.372 0 0 1 12.9-.163c4.52.753 8.845 2.325 13.127 3.902 4.223 1.561 8.457 3.17 12.874 4.076 4.304.853 8.723.94 13.057.26 8.268-1.252 16.036-4.607 23.772-7.642 7.785-3.05 15.806-5.934 24.23-6.313 8.318-.38 16.532 1.604 24.425 4.064 16.09 5.013 32.52 12.449 49.557 7.35 17.302-5.171 33.215-20.097 52.388-15.669a.721.721 0 0 1 .452.287.84.84 0 0 1 0 .89Z"/><circle cx="56" cy="189" r="4" fill="#F66F5E" fill-rule="nonzero"/><circle cx="151" cy="184" r="4" fill="#F66F5E" fill-rule="nonzero"/><circle cx="267" cy="179" r="4" fill="#F66F5E" fill-rule="nonzero"/><path fill="#E6E6E6" fill-rule="nonzero" d="M53.75 251c-1.519 0-2.75 1.12-2.75 2.5s1.231 2.5 2.75 2.5h38.5c1.519 0 2.75-1.12 2.75-2.5s-1.231-2.5-2.75-2.5h-38.5Z"/><path fill="#F66F5E" d="M29.5 243c5.799 0 10.5 4.701 10.5 10.5S35.299 264 29.5 264 19 259.299 19 253.5 23.701 243 29.5 243Zm-.406 7.142a5.013 5.013 0 0 0-1.8.724c-2.315 1.504-2.981 4.588-1.487 6.889 1.494 2.3 4.583 2.947 6.898 1.443a5.013 5.013 0 0 0 1.394-1.35l-1.339-2.06a2.872 2.872 0 0 1-1.206 1.637 2.863 2.863 0 0 1-3.963-.829 2.863 2.863 0 0 1 .855-3.957 2.872 2.872 0 0 1 1.987-.436Zm2.747-1.455a1.918 1.918 0 0 1-1.647 1.37h-.013l2.09 3.216a2.873 2.873 0 0 1 .26.4l2.088 3.217a4.952 4.952 0 0 0-.426-4.58ZM30.106 245s.197.64-.02.91c0 0-.045-.3-.19-.407 0 0 .052.053.055.128.003.109-.026.196-.14.417-.134.26-.255.525-.41.748-.156.222-.287.446-.354.69-.137.192-.217.425-.217.677 0 .642.524 1.162 1.17 1.162.646 0 1.17-.52 1.17-1.162 0-.232-.068-.447-.185-.628a1.971 1.971 0 0 0-.212-.602c.032-.325.048-.665-.032-.923l-.041-.101.004.012a.4.4 0 0 1-.052.347c-.085-.722-.546-1.268-.546-1.268Z"/><path fill="#E6E6E6" fill-rule="nonzero" d="M145.75 251c-1.519 0-2.75 1.12-2.75 2.5s1.231 2.5 2.75 2.5h38.5c1.519 0 2.75-1.12 2.75-2.5s-1.231-2.5-2.75-2.5h-38.5Z"/><path fill="#F66F5E" d="M121.5 243c5.799 0 10.5 4.701 10.5 10.5s-4.701 10.5-10.5 10.5-10.5-4.701-10.5-10.5 4.701-10.5 10.5-10.5Zm-.406 7.142a5.013 5.013 0 0 0-1.8.724c-2.315 1.504-2.981 4.588-1.487 6.889 1.494 2.3 4.583 2.947 6.898 1.443a5.013 5.013 0 0 0 1.394-1.35l-1.339-2.06a2.872 2.872 0 0 1-1.206 1.637 2.863 2.863 0 0 1-3.963-.829 2.863 2.863 0 0 1 .855-3.957 2.872 2.872 0 0 1 1.987-.436Zm2.747-1.455a1.918 1.918 0 0 1-1.647 1.37h-.013l2.09 3.216a2.873 2.873 0 0 1 .26.4l2.088 3.217a4.952 4.952 0 0 0-.426-4.58ZM122.106 245s.197.64-.02.91c0 0-.045-.3-.19-.407 0 0 .052.053.055.128.003.109-.026.196-.14.417-.134.26-.255.525-.41.748-.156.222-.287.446-.354.69-.137.192-.217.425-.217.677 0 .642.524 1.162 1.17 1.162.646 0 1.17-.52 1.17-1.162 0-.232-.068-.447-.185-.628a1.971 1.971 0 0 0-.212-.602c.032-.325.048-.665-.032-.923l-.041-.101.004.012a.4.4 0 0 1-.052.347c-.085-.722-.546-1.268-.546-1.268Z"/><path fill="#E6E6E6" fill-rule="nonzero" d="M237.75 251c-1.519 0-2.75 1.12-2.75 2.5s1.231 2.5 2.75 2.5h38.5c1.519 0 2.75-1.12 2.75-2.5s-1.231-2.5-2.75-2.5h-38.5Z"/><path fill="#F66F5E" d="M213.5 243c5.799 0 10.5 4.701 10.5 10.5s-4.701 10.5-10.5 10.5-10.5-4.701-10.5-10.5 4.701-10.5 10.5-10.5Zm-.406 7.142a5.013 5.013 0 0 0-1.8.724c-2.315 1.504-2.981 4.588-1.487 6.889 1.494 2.3 4.583 2.947 6.898 1.443a5.013 5.013 0 0 0 1.394-1.35l-1.339-2.06a2.872 2.872 0 0 1-1.206 1.637 2.863 2.863 0 0 1-3.963-.829 2.863 2.863 0 0 1 .855-3.957 2.872 2.872 0 0 1 1.987-.436Zm2.747-1.455a1.918 1.918 0 0 1-1.647 1.37h-.013l2.09 3.216a2.873 2.873 0 0 1 .26.4l2.088 3.217a4.952 4.952 0 0 0-.426-4.58ZM214.106 245s.197.64-.02.91c0 0-.045-.3-.19-.407 0 0 .052.053.055.128.003.109-.026.196-.14.417-.134.26-.255.525-.41.748-.156.222-.287.446-.354.69-.137.192-.217.425-.217.677 0 .642.524 1.162 1.17 1.162.646 0 1.17-.52 1.17-1.162 0-.232-.068-.447-.185-.628a1.971 1.971 0 0 0-.212-.602c.032-.325.048-.665-.032-.923l-.041-.101.004.012a.4.4 0 0 1-.052.347c-.085-.722-.546-1.268-.546-1.268Z"/><path fill="#E6E6E6" fill-rule="nonzero" d="M272.986 110H131.014c-2.768 0-5.011-1.598-5.014-3.568V75.568c.003-1.97 2.246-3.568 5.014-3.568h141.972c2.768 0 5.011 1.598 5.014 3.568v30.864c-.002 1.97-2.246 3.566-5.014 3.568ZM131.014 73.426c-1.661 0-3.007.959-3.009 2.14v30.865c0 1.181 1.348 2.139 3.009 2.14h141.972c1.661 0 3.007-.959 3.009-2.14V75.568c0-1.182-1.348-2.14-3.009-2.14l-141.972-.002Z"/><path fill="#F66F5E" fill-rule="nonzero" d="M163.042 90c-1.68.002-3.04 1.344-3.042 3v21c.002 1.656 1.363 2.998 3.042 3h108.916c1.68-.002 3.04-1.344 3.042-3V93c-.002-1.656-1.363-2.998-3.042-3H163.042Z"/><circle cx="178.5" cy="103.5" r="6.5" fill="#FFF" fill-rule="nonzero"/><path fill="#FFF" fill-rule="nonzero" d="M208.75 101c-1.519 0-2.75 1.12-2.75 2.5s1.231 2.5 2.75 2.5h38.5c1.519 0 2.75-1.12 2.75-2.5s-1.231-2.5-2.75-2.5h-38.5Z"/><path fill="#E6E6E6" fill-rule="nonzero" d="M166.986 38H25.014c-2.768 0-5.011-1.598-5.014-3.568V3.568C20.003 1.598 22.246 0 25.014 0h141.972c2.768 0 5.011 1.598 5.014 3.568v30.864c-.002 1.97-2.246 3.566-5.014 3.568ZM25.014 1.426c-1.661 0-3.007.959-3.009 2.14v30.865c0 1.181 1.348 2.139 3.009 2.14h141.972c1.661 0 3.007-.959 3.009-2.14V3.568c0-1.182-1.348-2.14-3.009-2.14L25.014 1.425Z"/><path fill="#F66F5E" fill-rule="nonzero" d="M57.042 18c-1.68.002-3.04 1.344-3.042 3v21c.002 1.656 1.363 2.998 3.042 3h108.916c1.68-.002 3.04-1.344 3.042-3V21c-.002-1.656-1.363-2.998-3.042-3H57.042Z"/><circle cx="71.5" cy="31.5" r="6.5" fill="#FFF" fill-rule="nonzero"/><path fill="#FFF" fill-rule="nonzero" d="M101.75 29c-1.519 0-2.75 1.12-2.75 2.5s1.231 2.5 2.75 2.5h38.5c1.519 0 2.75-1.12 2.75-2.5s-1.231-2.5-2.75-2.5h-38.5Z"/></g><g fill-rule="nonzero" transform="translate(1127 127)"><path fill="#FFB6B6" d="m322.999 363-8.809-.001L310 330h13z"/><path fill="#2F2E41" d="m322.556 359.846-9.272-3.738-.266-.108-5.119 3.846c-6.019.001-10.898 4.837-10.899 10.803V371h28v-11.154h-2.444Z"/><path fill="#FFB6B6" d="M401 351.224 393.349 355 375 327.573 386.292 322z"/><path fill="#2F2E41" d="m401.052 349-1.96.963-.202.1-9.83.75-.295.02-2.813 5.609a10.66 10.66 0 0 0-5.397 6.138 10.514 10.514 0 0 0 .576 8.115l.155.305L406 358.825 401.052 349ZM317.262 185l47.109 1.656.328-.479s4.018 9.419 4.018 17.491c0 2.685-1.858 20.24-.913 23.561.117.413-.691 1.426-.426 3.35.172 1.248 1.121.287 1.34 2.018.156 1.241-1.515 1.927-1.34 3.363.19 1.57 2.49 6.653 2.696 8.399 2.202 18.585 5.135 45.51 5.135 45.51s11.778 31.688 14.27 32.203c4.182.864 7.005 8.502 4.688 10.091-1.104.757-15.367 5.845-15.367 5.845-.783.143-3.235-1.093-1.673-4.014.287-.537-1.428.831-1.713.187-.303-.684.292-3.408-.055-4.168-3.117-6.824-7.903-16.28-12.438-21.136a46.242 46.242 0 0 1-12.111-26.08l-10.403-57.94-3.565 16.248-2.95 2.928.81 6.828-.14 6.627-7.367 27.583s-1.105 51.511.67 53.147c.96.886 5.039 11.798-2.68 12.782l-14.022-1.087s-1.89-4-.945-5.423.888-1.035-.265-3.364c-1.152-2.33-.68-6.277-.68-6.277a467.094 467.094 0 0 1-2.17-55.833c.703-30.612 4.963-65.779 4.963-66.496a4.752 4.752 0 0 0-.393-2.134v-1.932l1.81-6.847L317.262 185Z"/><circle cx="383.5" cy="172.5" r="18.5" fill="#F66F5E"/><path fill="#FFF" d="M381.01 182c-.64 0-1.241-.3-1.624-.812l-4.98-6.64a2.03 2.03 0 1 1 3.249-2.436l3.257 4.344 8.367-12.55a2.03 2.03 0 1 1 3.379 2.252l-9.959 14.938a2.031 2.031 0 0 1-1.633.903l-.056.001Z"/><path fill="#FFB8B8" d="M392.854 191.856a5.304 5.304 0 0 0-.91-4.41 5.35 5.35 0 0 0-3.98-2.137L378.44 153 372 160.445l10.248 30.251a5.359 5.359 0 0 0 4.786 5.272 5.37 5.37 0 0 0 5.82-4.112Z"/><path fill="#E6E6E6" d="m386.22 176.134-1.254-4.54 1.437-2.711-.108-.315-.434-1.219-2.251-1.78.807-2.27-2.848-7.989-.699-1.386-16.348-32.415-3.92-7.774-.908-1.406-2.828-4.38-3.865-5.979a8.645 8.645 0 0 0-5.479-3.77 8.884 8.884 0 0 0-1.098-.167l-.265-.02a8.837 8.837 0 0 0-1.973.114h-.013a8.522 8.522 0 0 0-3.214 1.259 8.571 8.571 0 0 0-3.953 7.52l.121 3.267.122 2.973 5.737 10.245.373.67.007.02 17.65 31.537 5.323 9.508.807 1.447 3.58 2.343-.956 2.357.278 3.67 3.045 2.27 4.414 4.425.176.362 1.356-.676.13-.067.304-.087 4.198-1.252 2.55-.757.08-.027.699-.174-.78-2.826Z"/><path fill="#3F3D56" d="M176.341 74H175V22h97v1.35h-95.659z"/><circle cx="287.5" cy="18.5" r="18.5" fill="#F66F5E"/><path fill="#FFF" d="M285.01 28c-.64 0-1.241-.3-1.625-.812l-4.979-6.64a2.03 2.03 0 1 1 3.249-2.436l3.257 4.344 8.367-12.55a2.03 2.03 0 1 1 3.379 2.252l-9.959 14.938a2.031 2.031 0 0 1-1.633.903l-.056.001Z"/><path fill="#3F3D56" d="M110.341 200H109v52h97v-1.35h-95.659z"/><circle cx="221.5" cy="251.5" r="18.5" fill="#F66F5E"/><path fill="#FFF" d="M219.01 261c-.64 0-1.241-.3-1.625-.812l-4.979-6.64a2.03 2.03 0 1 1 3.249-2.436l3.257 4.344 8.367-12.55a2.03 2.03 0 1 1 3.379 2.252l-9.959 14.938a2.031 2.031 0 0 1-1.633.903l-.056.001Z"/><path fill="#E6E6E6" d="M369.999 201.565c.02 1.419-.21 2.83-.677 4.17l-.102-.02c-12.027 2.07-22.756 2.408-27.72-4.937-6.475-8.203-15.382-8.11-25.317-4.509l-1.179-1.266-2.004-2.15 1.842-2.074-1.842-4.002 1.537-4.939 1.964-.357-.528-4.251-.826-2.486 2.424-2.648 2.059-6.609-1.483-13.832a91.745 91.745 0 0 1 11.254-54.72l5.628-5.025 2.336-2.089L340.501 84l3.311.384 8.966 1.03.305.728 2.2 5.282 11.594 12.39-.521 5.228-.23 2.304-.17 1.658-.8 7.977-3.256 32.588-.244 1.731-2.62 18.737c4.259 4.096 8.024 11.985 9.832 19.194.203.802-.373 1.617-.224 2.398.21 1.105 1.125 2.156 1.226 3.187.095.913.138 1.831.129 2.749Z"/><circle cx="346.5" cy="66.5" r="15.5" fill="#FFB6B6"/><path fill="#2F2E41" d="M365.561 62.337c-.907-2.868-3.396-5.294-6.35-5.611.456-3.883-1.257-7.701-4.444-9.904a10.221 10.221 0 0 0-10.716-.576 3.193 3.193 0 0 0-2.954-1.138 6.586 6.586 0 0 0-3 1.333c-4.426 3.282-6.713 8.765-5.953 14.27-.007-1.37.592 1.282 2.31 1.516 1.43.292 2.793.861 4.01 1.678a11.585 11.585 0 0 0 4.004 1.701c1.441.214 1.813 6.07.784 9.842-.196.715-.295 1.674.355 2.014.8.42 1.61-.635 2.504-.738a1.56 1.56 0 0 1 1.573 1.492 2.574 2.574 0 0 1-1.055 2.088 7.426 7.426 0 0 1-2.157 1.06l.258.372a2.042 2.042 0 0 0 2.419 1c1.025 1.253 11.59-2.228 12.105-4.517a25.24 25.24 0 0 0 5.426-7.106 12.23 12.23 0 0 0 .881-8.776Z"/><path fill="#E6E6E6" d="M377.989 109.392c-.218 1.773-1.924 3.097-3.719 3.467a8.261 8.261 0 0 1-2.767.046 19.316 19.316 0 0 1-2.651-.575 47.579 47.579 0 0 1-3.188-1.006 51.186 51.186 0 0 1-8.648-3.937 51.231 51.231 0 0 1-8.803-6.318l1.149.53-3.08-4.03c-.992-1.297-1.983-2.594-2.97-3.89-.062-.08-.11-.133-.13-.16v-.006c-.455-.589-.904-1.177-1.353-1.766-1.352-1.767-2.685-4.36-1.128-5.955a2.971 2.971 0 0 1 2.536-.748c.488.062.96.21 1.393.437a9.7 9.7 0 0 1 2.957 2.905c1.06-1.502 3.12-2.058 4.983-1.813.102.006.198.02.293.033 1.937.324 2.773-.695 4.452.304.782.463 1.258 2.845 2.04 3.308.442.265 2.08.662 2.529.933.884.53.66 2.508 1.55 3.037.66.39 2.427-.662 3.086-.271.694.417 1.659 3.169 2.352 3.58 1.38.826 2.488-.682 3.868.138 1.775 1.065 3.665 2.25 4.412 4.142.66 1.667-.19 3.95-1.828 4.426 1.627.19 2.806 1.6 2.665 3.19Z"/><path fill="#000" d="m365.464 111.327-.17 1.673a23.004 23.004 0 0 1-5.633-1.272 11.903 11.903 0 0 1-5.924-4.415 128.97 128.97 0 0 0-2.85-4.102 198.211 198.211 0 0 0-4.507-6.007 182.41 182.41 0 0 0-3.23-4.02c-.062-.082-.11-.136-.13-.164L343 93l.02.014c8.064 10.23 15.681 16.13 22.675 15.986 0 0 .821 2.707-.23 2.327Z" opacity=".2"/><path fill="#FFB8B8" d="M292.176 30.121a5.365 5.365 0 0 0 .848 4.513 5.515 5.515 0 0 0 4.052 2.255L306.225 70 313 62.54l-9.937-31.028c.03-2.763-2.04-5.112-4.818-5.466-2.778-.355-5.385 1.396-6.07 4.075Z"/><path fill="#E6E6E6" d="m344.939 113.995-.06-2.97-5.616-10.633-.208-.388-.014-.02-4.309-8.15-20.792-39.362-2.233-.82.111-3.197-.111-3.494-2.683-1.796L307.88 41l-1.622.462h-.006l-.047.013-7.09 1.987h-.007l-1.474.83-1.34 4.015-.294 1.9.293 3.453 3.351.67-1.11 3.54 3.368 10.183c4.216 17.799 9.972 33.162 19.91 41.934l.818 1.339 6.467 10.565a8.586 8.586 0 0 0 8.638 4.008h.006a8.507 8.507 0 0 0 3.204-1.19 8.368 8.368 0 0 0 2.318-2.122 8.612 8.612 0 0 0 1.736-5.32l-.06-3.272Z"/><path fill="#CACACA" d="M463.196 372.771 279.804 373c-.444 0-.804-.397-.804-.886s.36-.885.804-.885L463.196 371c.444 0 .804.397.804.886s-.36.885-.804.885Z"/><path fill="#F2F2F2" d="M56.213 103.548A39.333 39.333 0 0 1 67 76.453L43.19 43.776a11.632 11.632 0 0 0-17.52-1.472A84.644 84.644 0 0 0 0 103.264c0 4.289.321 8.572.96 12.813a11.655 11.655 0 0 0 5.416 8.197 11.59 11.59 0 0 0 9.667 1.158l41.113-13.32a39.533 39.533 0 0 1-.943-8.564Z"/><path fill="#E6E6E6" d="m58.56 118-42.562 13.896a11.571 11.571 0 0 0-7.08 6.507 11.656 11.656 0 0 0 .258 9.638c12.301 25.076 35.998 42.55 63.494 46.824 3.34.516 6.736-.46 9.3-2.672A11.626 11.626 0 0 0 86 183.38v-39.944C73.197 140.1 62.901 130.554 58.56 118Z"/><path fill="#3F3D56" d="M186.988 141.343a12.91 12.91 0 0 0-7.916-7.26L132.564 119c-5.525 12.97-17.552 22.022-31.564 23.757v48.368a12.872 12.872 0 0 0 4.504 9.772 12.922 12.922 0 0 0 10.363 2.953c30.666-4.735 57.094-24.096 70.814-51.878a12.756 12.756 0 0 0 .307-10.629Z"/><path fill="#F66F5E" d="M175.406 29.684a12.948 12.948 0 0 0-19.515 1.642L124 75.137a39.442 39.442 0 0 1 11.552 27.933c0 .964-.047 1.917-.115 2.865l50.693 16.44a12.979 12.979 0 0 0 10.825-1.327 12.932 12.932 0 0 0 5.976-9.105A96.045 96.045 0 0 0 204 97.655a94.428 94.428 0 0 0-28.594-67.97Z"/><path fill="#E6E6E6" d="M95.95 64.256a39.183 39.183 0 0 1 19.422 5.13l19.405-26.866a11.749 11.749 0 0 0 1.9-9.61 11.451 11.451 0 0 0-5.894-7.557 85.126 85.126 0 0 0-77.363-.114 11.748 11.748 0 0 0-6.097 7.737 11.647 11.647 0 0 0 1.884 9.546L71.22 73a39.237 39.237 0 0 1 24.73-8.744Z"/></g><g transform="translate(-13 191)"><path fill="#F2F2F2" fill-rule="nonzero" d="m123.998 284.465.43-9.748A31.05 31.05 0 0 1 139 271c-6.998 5.766-6.124 16.881-10.869 24.635a18.777 18.777 0 0 1-13.78 8.751L108.496 308a31.912 31.912 0 0 1 6.637-25.714 30.51 30.51 0 0 1 5.59-5.234c1.402 3.727 3.276 7.413 3.276 7.413Z"/><path fill="#FFF" fill-rule="nonzero" d="M83.303 1C76.51 1.008 71.008 6.541 71 13.37v78.26c.008 6.829 5.511 12.362 12.303 12.37h156.394c6.793-.006 12.297-5.54 12.303-12.37V13.37c-.006-6.83-5.51-12.364-12.303-12.37H83.303Z"/><path fill="#3F3D56" fill-rule="nonzero" d="M240.107 104H83.893c-7.117-.008-12.885-5.802-12.893-12.95v-78.1C71.008 5.803 76.776.009 83.893 0h156.214c7.117.008 12.885 5.802 12.893 12.95v78.1c-.008 7.148-5.776 12.942-12.893 12.95ZM83.893 1.214c-6.45.007-11.677 5.258-11.685 11.737v78.098c.008 6.48 5.235 11.73 11.685 11.737h156.214c6.45-.007 11.677-5.258 11.685-11.737V12.951c-.008-6.48-5.235-11.73-11.685-11.737H83.893Z"/><path fill="#F2F2F2" fill-rule="nonzero" d="M291.105 129h-150.21c-2.703 0-4.895-2.239-4.895-5s2.192-5 4.895-5h150.21c2.703 0 4.895 2.239 4.895 5s-2.192 5-4.895 5Z"/><rect width="339" height="10" x="136" y="135" fill="#F2F2F2" rx="5"/><rect width="339" height="10" x="136" y="151" fill="#F2F2F2" rx="5"/><path fill="#F2F2F2" fill-rule="nonzero" d="M145.291 79a5.306 5.306 0 0 1-2.55-.661A5.19 5.19 0 0 1 140 73.727V30.262c0-1.92 1.05-3.687 2.74-4.612a5.308 5.308 0 0 1 5.381.17l41.427 21.733A5.256 5.256 0 0 1 192 51.995c0 1.8-.925 3.475-2.452 4.44L148.121 78.17a5.28 5.28 0 0 1-2.83.831Z"/><path fill="#A0616A" fill-rule="nonzero" d="m123.787 84.806-33.628.225s-19.152-6.137-27.838-4.855L59 93.143 82.857 101l41.52-5.988a5.966 5.966 0 0 0 7.443-1.74 5.88 5.88 0 0 0-.44-7.585 5.97 5.97 0 0 0-7.593-.88Z"/><path fill="#3F3D56" fill-rule="nonzero" d="M82.598 102 42.86 90.666l-3.617-13.368a10.72 10.72 0 0 1 .841-11.364c3.392-4.556 6.044-.03 10.858 3.016 8.44.592 29.506 7.74 38.057 16.017l-.674 5.088L82.598 102Z"/><path fill="#F66F5E" fill-rule="nonzero" d="M117.291 91a5.306 5.306 0 0 1-2.55-.661A5.19 5.19 0 0 1 112 85.727V42.262c0-1.92 1.05-3.687 2.74-4.612a5.308 5.308 0 0 1 5.381.17l41.427 21.733A5.256 5.256 0 0 1 164 63.995c0 1.8-.925 3.475-2.452 4.44L120.121 90.17a5.28 5.28 0 0 1-2.83.831Z"/><path fill="#A0616A" fill-rule="nonzero" d="m90.001 301 8.131-.001L102 268l-12 .001z"/><path fill="#2F2E41" fill-rule="nonzero" d="M88 297.847h2.357L99.559 294l4.931 3.846h.001c5.804 0 10.509 4.836 10.509 10.802v.351L88 309v-11.153Z"/><path fill="#A0616A" fill-rule="nonzero" d="M30 293.257 37.909 296 52 266.05 40.328 262z"/><path fill="#2F2E41" fill-rule="nonzero" d="m28.448 290 2.212.758 9.825-.595 3.439 5.143c5.447 1.869 8.367 7.854 6.523 13.37l-.108.324L25 300.312 28.448 290ZM38.91 160.46s-.987 11.86 1.48 23.227c2.469 11.366 7.78 49.097 7.78 49.097C37.412 250.488 31.178 267.91 30 285.542l15.142 1.213 21.68-51.505 2.197-51.563 15.795 35.088-.812 2.71a3.056 3.056 0 0 0 1.304 3.467s-1.48 9.637-.492 9.637c.987 0 3.455 1.482 3.455 1.482-6.153 19.18-6.98 37.548-1.336 54.929l13.325-.606L109 214.82l-6.417-41.018-.493-7.907-2.221.091-1.131-3.304L96.66 157l-57.75 3.46Z"/><path fill="#3F3D56" fill-rule="nonzero" d="m38.72 163-.09-.123c-4.714-6.546 2.377-22.276 3.447-24.556l-4.505-1.45-3.94-33.055-2.88-11.42c-2.21-8.788.533-18.077 7.175-24.295l6.66-6.226L52.68 50H65.73l4.475 8.382c8.953 2.052 15.147 10.157 14.718 19.259L83.91 99.624l3.97 27.371.003 4.954 6.893 11.206 1.501 6.948c.622.814 4.723 6.237 4.723 7.72 0 .222-.166.437-.521.675-2.795 1.877-18.244 5.704-25.082 2.99-7.283-2.887-36.236 1.445-36.527 1.489l-.15.023Z"/><path fill="#CCC" fill-rule="nonzero" d="M171 308.5c0 .132-.075.26-.209.353a.9.9 0 0 1-.507.147H.72c-.398 0-.72-.224-.72-.5s.322-.5.72-.5h169.56c.396 0 .72.222.72.497v.003Z"/><circle cx="60" cy="28" r="17" fill="#A0616A" fill-rule="nonzero"/><path fill="#A0616A" fill-rule="nonzero" d="M124.521 40.98 98 61.559S79.11 68.229 73 74.531L78.195 87l23.655-8.136 29.3-30.014c2.824-.52 4.87-3.015 4.85-5.916-.02-2.901-2.098-5.369-4.928-5.85-2.83-.482-5.593 1.161-6.55 3.896Z"/><path fill="#3F3D56" fill-rule="nonzero" d="M102 80.03 64.988 91l-12.725-4.57c-3.758-1.792-6.185-5.587-6.262-9.79-.068-5.796 4.814-3.727 10.522-4.19 7.11-4.687 28.314-11.757 40.202-10.24l2.566 4.564L102 80.03Z"/><path fill="#2F2E41" fill-rule="nonzero" d="M72.37 8.35c-1.237-.036-.812-2.388-1.81-3.138l-.015.068a2.436 2.436 0 0 1-2.25 1.833 2.432 2.432 0 0 1-2.397-1.633A3.712 3.712 0 0 0 63.55 3c-.062 2.18-1.698 4.071-3.65 5.013-1.953.94-4.179 1.098-6.343 1.13-2.164.032-4.36-.041-6.458.493-2.099.533-4.14 1.787-5.036 3.772-.897 1.985-.257 4.717 1.703 5.64-1.519.009-2.807 1.271-3.333 2.707a10.824 10.824 0 0 0-.329 4.541c.427 5.63 1.468 11.689 5.536 15.57 3.1 2.96 7.539 4.151 11.81 4.134 4.27-.017 3.519-.413 7.648-1.51 0 0 3.925-11.339 2.937-12.454-.989-1.115-1.81-2.542-1.63-4.027.178-1.484 1.762-2.814 3.136-2.249-.231-.595-.405-.708-.514-.678.069-.169.13-.342.181-.517a5.868 5.868 0 0 1 3.649-3.898 4.511 4.511 0 0 1 4.952 1.51c4.522-4.272 1.717-13.612-5.44-13.826Z"/><path fill="#3F3D56" d="M238 5c5.523 0 10 4.477 10 10s-4.477 10-10 10-10-4.477-10-10 4.477-10 10-10Zm-.375 6.927a4.404 4.404 0 0 0-1.623.643c-2.082 1.352-2.652 4.17-1.272 6.295 1.38 2.125 4.186 2.75 6.268 1.399.508-.33.926-.748 1.248-1.221l-1.236-1.903a2.544 2.544 0 0 1-1.075 1.487c-1.196.777-2.808.417-3.6-.804-.793-1.22-.466-2.84.73-3.616a2.544 2.544 0 0 1 1.795-.377Zm2.498-1.267a1.729 1.729 0 0 1-1.482 1.164l-.044.002.024.035h-.012l1.928 2.968a2.724 2.724 0 0 1 .242.372l1.927 2.97a4.609 4.609 0 0 0-.436-4.202ZM238.106 7s.197.64-.02.91c0 0-.045-.3-.19-.407 0 0 .052.053.055.128.003.109-.026.196-.14.417-.134.26-.255.525-.41.748-.274.39-.472.79-.377 1.29.07.366.26.704.562.838.141.038.23.086.328.074a.36.36 0 0 1-.081-.093c.181.15.414.242.667.242.581 0 1.052-.48 1.052-1.073 0-.475-.301-.877-.72-1.02l-.059-.12c.032-.326.048-.666-.032-.924l-.041-.101.004.012a.4.4 0 0 1-.052.347c-.085-.722-.546-1.268-.546-1.268Z"/></g><rect width="243" height="219" x="1106" y="127" stroke="#E6E6E6" stroke-width="2" rx="8"/><path fill="#323639" d="M772.17 346.601c.72 0 1.414-.135 2.085-.405.67-.27 1.39-.662 2.156-1.178l2.516 3.519c-.91.75-1.965 1.349-3.162 1.794-1.198.446-2.504.669-3.918.669-2.036 0-3.791-.41-5.265-1.232a8.42 8.42 0 0 1-3.396-3.448c-.79-1.478-1.186-3.191-1.186-5.138s.407-3.683 1.222-5.208a8.942 8.942 0 0 1 3.468-3.59c1.497-.868 3.252-1.302 5.265-1.302 1.414 0 2.683.194 3.81.58 1.126.388 2.18.98 3.162 1.778l-2.444 3.343c-1.39-.938-2.815-1.408-4.276-1.408-2.852 0-4.277 1.936-4.277 5.807 0 1.947.371 3.337 1.114 4.17.743.833 1.785 1.25 3.127 1.25Zm19.096-15.519c2.9 0 5.17.897 6.81 2.692 1.642 1.795 2.462 4.205 2.462 7.232 0 3.144-.814 5.595-2.444 7.355-1.629 1.76-3.905 2.639-6.828 2.639-2.923 0-5.2-.874-6.828-2.622-1.63-1.748-2.444-4.193-2.444-7.337 0-1.994.365-3.736 1.096-5.226.73-1.49 1.797-2.65 3.199-3.484 1.401-.832 3.06-1.249 4.977-1.249Zm0 4.117c-1.174 0-2.036.464-2.588 1.39-.55.927-.826 2.411-.826 4.452 0 2.065.275 3.56.826 4.487.552.927 1.414 1.39 2.588 1.39 1.174 0 2.037-.47 2.588-1.408.55-.938.826-2.44.826-4.504 0-2.018-.275-3.49-.826-4.417-.551-.926-1.414-1.39-2.588-1.39Zm12.698-3.483h4.96l.395 2.146c.863-.938 1.767-1.636 2.714-2.094.946-.457 2.018-.686 3.216-.686 1.653 0 2.941.493 3.864 1.478.922.985 1.383 2.358 1.383 4.117v13.725h-5.678v-12.106c0-1.173-.132-1.982-.395-2.428-.264-.446-.743-.669-1.438-.669-.575 0-1.132.182-1.671.546-.54.364-1.096.897-1.671 1.601v13.056h-5.679v-18.686Zm38.143 17.595c-1.797 1.126-3.881 1.689-6.253 1.689-2.444 0-4.283-.61-5.517-1.83-1.234-1.22-1.85-2.932-1.85-5.138v-8.48h-3.99v-3.836h3.99v-4.047l5.678-.669v4.716h6.145l-.575 3.835h-5.57v8.481c0 .915.215 1.572.647 1.97.431.4 1.126.6 2.084.6a6.859 6.859 0 0 0 3.343-.845l1.868 3.554Zm8.71-6.616c.359 2.839 1.892 4.258 4.6 4.258 1.629 0 3.258-.516 4.887-1.548l2.264 3.026c-.934.798-2.048 1.425-3.342 1.883-1.294.457-2.72.686-4.277.686-2.132 0-3.94-.416-5.426-1.25-1.486-.832-2.606-1.993-3.36-3.483-.755-1.49-1.133-3.22-1.133-5.19 0-1.878.366-3.573 1.096-5.086a8.527 8.527 0 0 1 3.199-3.59c1.402-.879 3.073-1.319 5.013-1.319 1.821 0 3.403.381 4.744 1.144 1.342.762 2.378 1.865 3.109 3.308.73 1.443 1.096 3.161 1.096 5.155 0 .774-.036 1.443-.108 2.006h-12.363Zm3.521-7.883c-1.03 0-1.856.37-2.48 1.109-.622.739-.994 1.87-1.113 3.396h7.008c-.048-3.003-1.186-4.505-3.415-4.505Zm12.52-3.096h4.959l.395 2.146c.862-.938 1.767-1.636 2.713-2.094.947-.457 2.019-.686 3.217-.686 1.653 0 2.94.493 3.863 1.478s1.384 2.358 1.384 4.117v13.725h-5.678v-12.106c0-1.173-.132-1.982-.396-2.428-.263-.446-.742-.669-1.437-.669-.575 0-1.132.182-1.671.546-.54.364-1.097.897-1.672 1.601v13.056h-5.678v-18.686ZM905 349.31c-1.797 1.126-3.881 1.689-6.253 1.689-2.444 0-4.283-.61-5.517-1.83-1.234-1.22-1.85-2.932-1.85-5.138v-8.48h-3.99v-3.836h3.99v-4.047l5.678-.669v4.716h6.145l-.575 3.835h-5.57v8.481c0 .915.215 1.572.646 1.97.432.4 1.127.6 2.085.6a6.859 6.859 0 0 0 3.342-.845L905 349.31Z"/><path fill="#F66F5E" d="M916.615 322c.977 0 1.775.305 2.395.915.62.61.93 1.37.93 2.279 0 .933-.31 1.699-.93 2.297-.62.598-1.418.897-2.395.897-.977 0-1.782-.305-2.413-.915-.632-.61-.948-1.37-.948-2.279 0-.91.316-1.669.948-2.279.631-.61 1.436-.915 2.413-.915Zm3.396 25.157h4.862v3.876H909v-3.876h5.362v-11.304h-5.183v-3.876h10.832v15.18Zm27.432-14.068c-1.24.503-3.062.754-5.47.754 1.24.55 2.163 1.208 2.771 1.974.608.765.912 1.746.912 2.942 0 1.22-.334 2.315-1.001 3.284-.668.97-1.61 1.729-2.825 2.279-1.215.55-2.621.825-4.218.825a10.89 10.89 0 0 1-2.217-.215c-.19.096-.34.245-.447.449a1.33 1.33 0 0 0-.16.628c0 .359.137.64.41.843.275.203.829.305 1.663.305h3.146c1.43 0 2.693.24 3.79.718 1.096.478 1.942 1.136 2.538 1.974.596.837.894 1.782.894 2.835 0 1.986-.864 3.535-2.592 4.647-1.728 1.113-4.249 1.669-7.561 1.669-2.36 0-4.213-.245-5.56-.736-1.346-.49-2.287-1.178-2.824-2.063-.536-.885-.804-1.998-.804-3.338h5.005c0 .598.113 1.065.34 1.4.226.335.649.586 1.269.753.62.168 1.525.252 2.717.252 1.668 0 2.818-.192 3.45-.574.631-.383.947-.922.947-1.615 0-.575-.233-1.035-.697-1.382-.465-.347-1.15-.52-2.056-.52h-3.003c-1.954 0-3.42-.353-4.397-1.06-.977-.705-1.466-1.608-1.466-2.709 0-.717.185-1.393.554-2.027a4.726 4.726 0 0 1 1.555-1.597c-1.191-.646-2.05-1.406-2.574-2.28-.524-.872-.786-1.931-.786-3.175 0-1.412.357-2.644 1.072-3.697.715-1.052 1.716-1.86 3.003-2.422 1.287-.562 2.753-.843 4.398-.843 1.906.047 3.527-.138 4.862-.557 1.334-.418 2.693-1.046 4.075-1.884l1.287 4.163Zm-10.081 1.974c-.906 0-1.615.287-2.128.861-.512.575-.768 1.352-.768 2.333 0 1.029.262 1.83.786 2.404.525.575 1.228.862 2.11.862.93 0 1.644-.281 2.145-.844.5-.562.75-1.393.75-2.494 0-2.081-.965-3.122-2.895-3.122Zm12.774-3.086h4.934l.393 2.189c.858-.957 1.758-1.669 2.7-2.135.94-.467 2.007-.7 3.199-.7 1.644 0 2.925.502 3.843 1.507.917 1.005 1.376 2.404 1.376 4.199v13.996h-5.648v-12.345c0-1.197-.131-2.022-.394-2.477-.262-.454-.738-.681-1.43-.681-.572 0-1.126.185-1.662.556-.536.37-1.09.915-1.662 1.633v13.314h-5.649v-19.056ZM979.177 322c.977 0 1.776.305 2.395.915.62.61.93 1.37.93 2.279 0 .933-.31 1.699-.93 2.297-.62.598-1.418.897-2.395.897-.977 0-1.781-.305-2.413-.915-.632-.61-.947-1.37-.947-2.279 0-.91.315-1.669.947-2.279.632-.61 1.436-.915 2.413-.915Zm3.396 25.157h4.862v3.876h-15.873v-3.876h5.363v-11.304h-5.184v-3.876h10.832v15.18Zm26.36 2.763c-1.788 1.149-3.861 1.723-6.22 1.723-2.432 0-4.26-.622-5.488-1.866-1.228-1.244-1.841-2.99-1.841-5.24v-8.649h-3.968v-3.911h3.968v-4.127l5.648-.682v4.809h6.113l-.572 3.911h-5.54v8.65c0 .932.214 1.602.643 2.009.429.407 1.12.61 2.073.61a6.69 6.69 0 0 0 3.325-.861l1.859 3.624Zm8.663-6.746c.358 2.895 1.883 4.342 4.576 4.342 1.621 0 3.242-.526 4.862-1.579l2.253 3.086c-.93.814-2.038 1.454-3.325 1.92-1.287.467-2.705.7-4.254.7-2.122 0-3.92-.425-5.399-1.274a8.21 8.21 0 0 1-3.342-3.553c-.751-1.519-1.126-3.283-1.126-5.293 0-1.914.363-3.643 1.09-5.186.727-1.543 1.788-2.763 3.182-3.66 1.394-.898 3.056-1.346 4.987-1.346 1.811 0 3.384.389 4.719 1.166 1.335.778 2.365 1.902 3.092 3.374.727 1.47 1.09 3.223 1.09 5.257 0 .79-.035 1.471-.107 2.046h-12.298Zm3.504-8.04c-1.025 0-1.847.378-2.467 1.131-.62.754-.989 1.908-1.108 3.463h6.971c-.048-3.062-1.18-4.593-3.396-4.593Zm11.378-12.551c.822 0 1.579.206 2.27.619.69.413 1.24.969 1.644 1.669.405.7.608 1.462.608 2.287 0 .826-.203 1.585-.608 2.28a4.542 4.542 0 0 1-1.644 1.65 4.395 4.395 0 0 1-2.27.61 4.443 4.443 0 0 1-2.28-.61 4.52 4.52 0 0 1-1.653-1.65 4.438 4.438 0 0 1-.608-2.28c0-.825.203-1.588.608-2.287a4.57 4.57 0 0 1 1.654-1.67 4.393 4.393 0 0 1 2.279-.618Zm0 .843c-.668 0-1.275.168-1.824.503-.548.335-.98.79-1.296 1.363a3.81 3.81 0 0 0-.473 1.866c0 .682.158 1.304.473 1.867a3.572 3.572 0 0 0 1.296 1.336 3.476 3.476 0 0 0 1.824.494 3.504 3.504 0 0 0 3.11-1.83c.31-.563.465-1.185.465-1.867 0-.681-.155-1.306-.465-1.875a3.553 3.553 0 0 0-1.287-1.354 3.429 3.429 0 0 0-1.823-.503Zm-.25 1.149c1.453 0 2.18.508 2.18 1.525 0 .359-.107.658-.322.897-.214.24-.506.413-.875.52l1.537 2.118h-1.18l-1.34-1.956h-.519v1.956h-1.001v-5.06h1.52Zm-.519.79v1.542h.572c.727 0 1.09-.269 1.09-.807 0-.49-.375-.736-1.126-.736h-.536ZM900 141c46.944 0 85 38.056 85 85s-38.056 85-85 85-85-38.056-85-85 38.056-85 85-85Zm-7.44 54.459a39.77 39.77 0 0 0-14.411 5.769c-18.525 12.03-23.76 36.847-11.692 55.43 12.068 18.583 36.869 23.895 55.394 11.865a39.77 39.77 0 0 0 11.132-10.819l-10.812-16.648a22.849 22.849 0 0 1-9.618 13.149c-10.642 6.91-24.89 3.86-31.822-6.816-6.933-10.676-3.926-24.932 6.716-31.843a22.849 22.849 0 0 1 15.924-3.44Zm22.067-11.494c-1.817 5.851-7.027 10.202-13.32 10.735l.076.117a40.066 40.066 0 0 0-.111-.004l16.802 25.874a23.417 23.417 0 0 1 2.24 3.448l16.802 25.873c4.725-11.715 3.845-25.493-3.573-36.916ZM901.509 156s1.868 5.124-.19 7.277c0 0-.433-2.39-1.8-3.249 0 0 .487.423.514 1.017.027.871-.244 1.571-1.327 3.341-1.273 2.073-2.424 4.2-3.9 5.983-1.113 1.334-2.094 2.682-2.782 4.102a9.371 9.371 0 0 0-1.385 4.919c0 5.186 4.191 9.39 9.361 9.39 4.42 0 8.125-3.074 9.106-7.207.318-.62.514-1.197.69-2.118.69-2.88-.474-5.56-1.95-7.99.338-2.92.49-5.988-.631-8.11l-.138-.245.021.043c.13.271.702 1.652-.403 2.99-.812-5.772-5.186-10.143-5.186-10.143Z"/></g></svg>