<svg xmlns="http://www.w3.org/2000/svg" viewBox="0 0 128 128"><path fill="#F66F5E" fill-rule="evenodd" d="M64 0c35.346 0 64 28.654 64 64 0 35.346-28.654 64-64 64-35.346 0-64-28.654-64-64C0 28.654 28.654 0 64 0Zm-5.549 40.828a29.991 29.991 0 0 0-10.834 4.345c-13.932 9.048-17.892 27.677-8.844 41.61 9.048 13.932 27.677 17.892 41.61 8.844a29.991 29.991 0 0 0 8.375-8.13l-8.106-12.482a17.215 17.215 0 0 1-7.24 9.877c-8.004 5.198-18.706 2.923-23.904-5.08-5.198-8.004-2.923-18.706 5.08-23.904a17.215 17.215 0 0 1 11.969-2.598Zm16.575-8.68c-1.338 4.41-5.249 7.701-9.985 8.126l.04.063a30.178 30.178 0 0 0-.083-.003l12.594 19.394a17.502 17.502 0 0 1 1.686 2.596l12.595 19.393c3.563-8.797 2.916-19.136-2.646-27.7Zm-10.22-20.724s1.396 3.895-.141 5.53c0 0-.324-1.816-1.345-2.468 0 0 .364.32.384.772.02.663-.182 1.195-.99 2.54-.95 1.576-1.81 3.192-2.912 4.547-1.618 1.973-2.863 3.99-2.842 6.366v.089c0 1.37.391 2.648 1.068 3.73.703 1.233 1.737 2.24 3.088 2.752.122.028.238.057.35.086.785.305 1.64.472 2.534.472.778 0 1.526-.126 2.225-.359l-.074.162c-.042.081.09-.03.304-.243a7.044 7.044 0 0 0 4.58-6.35l-.04.2c.515-2.188-.355-4.226-1.457-6.072.263-2.309.374-4.738-.576-6.354l.012.024c.083.172.548 1.245-.295 2.285-.58-4.191-3.587-7.411-3.854-7.69l-.018-.019Z"/></svg>